<?xml version="1.0" standalone="no"?>
<!DOCTYPE svg PUBLIC "-//W3C//DTD SVG 20010904//EN"
 "http://www.w3.org/TR/2001/REC-SVG-20010904/DTD/svg10.dtd">
<svg version="1.0" xmlns="http://www.w3.org/2000/svg"
 width="512.000000pt" height="512.000000pt" viewBox="0 0 512.000000 512.000000"
 preserveAspectRatio="xMidYMid meet">
<metadata>
Created by potrace 1.14, written by Peter Selinger 2001-2017
</metadata>
<g transform="translate(0.000000,512.000000) scale(0.100000,-0.100000)"
fill="#000000" stroke="none">
<path d="M175 5110 c28 -12 67 -12 60 0 -3 6 -23 10 -43 9 -30 0 -33 -2 -17
-9z"/>
<path d="M265 5111 c5 -10 123 -6 133 4 3 3 -27 5 -67 5 -42 0 -70 -4 -66 -9z"/>
<path d="M552 5111 c-8 -4 -13 -12 -12 -17 1 -5 -3 -10 -9 -12 -6 -2 -11 4
-11 13 0 13 -6 15 -32 10 -18 -4 -52 -16 -76 -27 -42 -20 -102 -38 -131 -40
-19 -2 -60 -48 -60 -68 0 -8 9 -26 20 -39 24 -29 50 -20 59 20 4 15 8 20 13
12 6 -9 17 -7 42 8 19 12 35 25 35 31 0 5 -4 7 -9 4 -14 -9 -41 4 -41 20 0 12
46 32 55 23 2 -2 5 -18 8 -35 4 -27 1 -33 -32 -50 -20 -10 -65 -46 -100 -78
-60 -56 -65 -58 -77 -40 -7 10 -18 24 -23 31 -17 19 11 34 33 17 16 -11 17
-16 6 -29 -7 -8 -8 -15 -2 -15 5 0 15 7 22 15 9 11 8 19 -7 39 -10 14 -22 26
-27 26 -17 0 -76 -42 -70 -51 3 -5 10 -7 15 -4 5 4 9 -1 9 -9 0 -19 -5 -20
-30 -6 -42 22 -126 -121 -100 -170 6 -11 15 -20 20 -20 5 0 7 -7 3 -16 -3 -9
7 -31 26 -55 46 -56 62 -102 60 -165 -1 -30 1 -57 4 -60 15 -16 104 -16 141 0
22 9 86 24 142 32 124 20 145 14 194 -51 41 -54 122 -87 198 -79 26 3 97 -4
157 -14 61 -11 116 -17 123 -15 6 3 12 20 12 38 0 34 -12 47 -120 134 l-42 34
5 64 c2 34 12 74 21 88 20 31 21 108 1 200 -21 101 -19 149 9 193 13 20 31 44
40 51 10 8 24 27 32 43 l15 29 -120 -2 c-67 0 -118 -5 -116 -10 3 -4 12 -6 20
-3 10 4 12 0 8 -16 -4 -13 -11 -19 -20 -16 -8 3 -20 6 -25 6 -6 0 -8 3 -5 7 4
3 2 12 -4 20 -15 17 -97 18 -96 1 1 -35 -4 -59 -11 -54 -5 3 -7 19 -4 36 l4
30 -63 0 c-35 0 -70 -4 -77 -9z m134 -98 c-10 -10 -19 5 -10 18 6 11 8 11 12
0 2 -7 1 -15 -2 -18z m-16 -30 c0 -11 -44 -73 -52 -73 -12 0 -10 8 15 45 20
32 37 45 37 28z m-264 -60 c-3 -8 -6 -19 -6 -24 0 -5 -7 -9 -15 -9 -16 0 -19
17 -9 44 3 8 12 12 20 9 9 -3 13 -12 10 -20z m44 12 c0 -12 -24 -55 -32 -55
-9 0 -10 7 -2 38 4 12 13 22 20 22 8 0 14 -2 14 -5z m34 -32 c-8 -35 -7 -33
-23 -24 -11 7 -11 12 0 30 19 29 31 26 23 -6z m50 9 c9 -15 -19 -51 -33 -43
-10 7 -11 13 -2 30 12 21 26 27 35 13z m46 -9 c-1 -5 -7 -19 -15 -33 l-15 -25
2 33 c1 18 8 32 15 32 7 0 13 -3 13 -7z m27 -33 c0 -30 -10 -39 -22 -20 -5 8
10 50 19 50 1 0 3 -13 3 -30z m50 -27 c-3 -3 -13 -3 -21 -1 -15 3 -15 6 1 28
l18 25 3 -23 c2 -13 1 -26 -1 -29z m54 15 c-7 -20 -41 -35 -41 -18 0 22 14 40
31 40 15 0 17 -4 10 -22z m39 -9 c0 -18 -25 -37 -36 -27 -2 3 0 17 6 32 11 30
30 27 30 -5z m-390 3 c0 -16 -25 -32 -49 -32 l-26 0 25 20 c26 20 50 26 50 12z
m60 -3 c0 -17 -20 -49 -30 -49 -14 0 -12 34 2 48 15 15 28 15 28 1z m36 -7
c15 -10 12 -52 -4 -52 -9 0 -11 7 -7 23 5 20 5 20 -9 -3 -16 -26 -20 -20 -10
18 7 23 12 26 30 14z m51 -29 c-9 -9 -20 -14 -24 -10 -3 4 2 14 13 21 25 19
33 10 11 -11z m53 10 c0 -10 -32 -43 -41 -43 -5 0 -3 11 3 25 10 22 38 36 38
18z m15 -32 c-3 -12 -10 -21 -15 -21 -5 0 -4 11 2 25 13 29 23 26 13 -4z m45
19 c0 -5 -4 -10 -9 -10 -6 0 -8 -9 -6 -20 2 -13 -2 -20 -11 -20 -17 0 -18 14
-4 41 11 20 30 26 30 9z m26 -30 c-1 -17 -7 -30 -13 -30 -15 0 -15 5 -7 38 9
32 21 27 20 -8z m54 1 c0 -19 -26 -48 -36 -39 -3 3 -2 17 2 32 7 30 34 36 34
7z m35 -18 c-8 -35 -13 -39 -26 -26 -8 8 -8 17 0 32 17 31 35 27 26 -6z m162
-10 c-3 -10 -5 -4 -5 12 0 17 2 24 5 18 2 -7 2 -21 0 -30z m-457 23 c0 -3 -4
-8 -10 -11 -5 -3 -10 -1 -10 4 0 6 5 11 10 11 6 0 10 -2 10 -4z m-44 -23 c-12
-12 -96 -41 -96 -33 0 4 17 14 38 23 40 16 70 21 58 10z m-121 -43 c3 -5 -1
-10 -10 -10 -9 0 -13 5 -10 10 3 6 8 10 10 10 2 0 7 -4 10 -10z m-75 -25 c-41
-16 -79 -19 -64 -6 11 11 40 19 74 19 21 0 20 -1 -10 -13z m660 -10 c0 -8 -5
-15 -11 -15 -15 0 -6 -113 9 -118 7 -2 12 -10 12 -18 0 -10 -13 -14 -45 -14
-42 0 -58 11 -35 25 6 3 10 15 10 26 0 14 -7 19 -30 19 -25 0 -30 -4 -30 -25
0 -16 6 -25 15 -25 23 0 18 -17 -7 -24 -57 -15 -101 0 -64 21 19 11 10 123
-10 123 -30 0 -12 18 24 24 54 9 62 8 62 -9 0 -8 -7 -15 -15 -15 -8 0 -15 -9
-15 -20 0 -16 7 -20 35 -20 28 0 35 4 35 20 0 11 -7 20 -15 20 -8 0 -15 6 -15
14 0 10 13 16 38 19 20 2 40 4 45 5 4 1 7 -5 7 -13z m-760 -5 c0 -5 -4 -10
-10 -10 -5 0 -10 5 -10 10 0 6 5 10 10 10 6 0 10 -4 10 -10z m779 -324 c-2 -2
-17 -6 -34 -10 -22 -5 -26 -4 -15 4 14 9 59 15 49 6z m53 -26 c18 -11 29 -20
25 -20 -11 0 -67 29 -67 35 0 9 9 5 42 -15z m88 10 c0 -5 -2 -10 -4 -10 -3 0
-8 5 -11 10 -3 6 -1 10 4 10 6 0 11 -4 11 -10z"/>
<path d="M1067 5088 c-10 -18 -35 -55 -58 -83 -40 -50 -40 -50 -34 -117 3 -37
10 -82 16 -100 14 -51 11 -165 -6 -191 -8 -12 -17 -48 -21 -78 l-6 -56 68 -55
c86 -68 93 -77 96 -117 1 -18 7 -36 13 -40 5 -5 47 -11 91 -14 l82 -6 30 49
c25 40 44 56 102 85 39 20 77 34 83 32 7 -2 -21 -20 -60 -41 -55 -27 -82 -48
-108 -84 -32 -44 -33 -48 -15 -56 11 -5 36 -33 57 -63 21 -30 44 -58 53 -62 8
-4 57 -7 109 -6 l95 0 44 54 c54 66 52 84 -13 169 -25 33 -45 63 -45 66 0 20
23 -3 68 -66 74 -104 65 -97 114 -86 45 10 160 5 268 -13 55 -9 72 -8 110 6
104 38 176 36 255 -9 22 -13 52 -26 67 -30 31 -7 30 -10 54 122 18 104 15 131
-21 204 -30 60 -156 206 -173 200 -8 -2 -12 -28 -12 -73 0 -68 0 -69 -27 -69
-24 0 -25 -2 -13 -14 24 -22 74 -27 99 -9 31 21 37 10 9 -16 -12 -12 -31 -20
-41 -19 -11 2 -25 -6 -31 -16 -14 -25 -39 -51 -57 -60 -49 -24 -65 -39 -75
-68 -10 -30 -16 -34 -60 -40 -38 -6 -55 -14 -76 -40 -19 -23 -28 -28 -28 -16
0 24 46 75 75 82 14 4 25 13 25 22 0 8 7 17 15 20 22 9 18 34 -5 34 -11 0 -20
-4 -20 -10 0 -5 -8 -10 -19 -10 -10 0 -24 -7 -32 -16 -11 -14 -14 -13 -23 5
-11 20 -11 19 -32 -3 -15 -17 -20 -35 -18 -66 l2 -42 -17 28 c-10 16 -15 31
-11 34 4 3 10 29 13 59 10 83 -28 107 -81 51 -16 -16 -35 -30 -43 -30 -8 0
-10 3 -4 8 15 11 55 70 55 81 0 6 12 13 28 16 15 4 36 11 47 17 25 14 75 20
75 9 0 -4 -12 -13 -26 -20 -23 -10 -26 -16 -20 -44 4 -17 10 -35 14 -39 11
-11 57 15 57 32 1 26 17 42 36 37 12 -3 19 0 19 8 0 7 3 20 6 29 3 9 -5 26
-20 41 -50 50 -57 69 -50 124 7 57 20 68 22 19 3 -60 17 -92 50 -111 l32 -19
0 46 c0 32 -5 48 -15 52 -30 12 -14 25 27 22 39 -3 44 -7 75 -58 l34 -55 -3
45 c-2 30 -7 44 -15 43 -7 -2 -13 4 -13 13 0 13 10 15 59 12 48 -2 58 0 57 12
-2 8 1 26 5 40 l9 25 -4 -27 c-2 -21 2 -27 20 -31 33 -6 48 31 24 60 -10 12
-20 20 -24 18 -3 -3 -2 0 4 7 7 9 16 6 35 -12 24 -22 36 -68 15 -55 -6 3 -13
-1 -17 -10 -3 -10 0 -21 7 -25 8 -5 -3 -10 -29 -15 l-42 -7 41 -44 c22 -25 38
-49 35 -54 -4 -6 -1 -9 5 -8 7 2 51 -41 99 -96 78 -89 105 -109 107 -81 0 6 8
27 17 49 9 21 17 43 17 47 0 5 15 32 34 59 49 72 77 160 82 265 7 122 7 124
59 190 67 87 66 89 -67 82 -62 -4 -117 -7 -122 -7 -4 0 -5 -7 -2 -16 3 -9 -1
-25 -9 -37 -14 -21 -15 -20 -15 17 0 33 -3 38 -20 33 -11 -3 -20 -1 -20 4 0 5
-176 9 -422 8 l-423 -1 50 -21 c69 -29 230 -113 290 -152 59 -38 225 -182 225
-196 0 -22 -31 -5 -88 47 -34 31 -60 60 -57 65 4 5 0 7 -7 4 -7 -3 -25 6 -40
20 -15 14 -30 25 -33 25 -4 0 -21 11 -38 24 -31 23 -210 116 -223 116 -4 0 1
-9 11 -20 10 -11 14 -20 9 -20 -5 0 -15 9 -22 20 -7 11 -23 20 -36 20 -13 0
-26 7 -29 15 -4 8 -23 22 -44 32 -33 15 -79 18 -373 21 l-336 3 -17 -33z
m1773 -15 c0 -9 -6 -13 -15 -9 -8 3 -15 1 -15 -4 0 -6 6 -10 14 -10 8 0 17 -7
20 -16 4 -10 2 -13 -7 -7 -27 17 -68 11 -77 -11 -8 -19 -8 -7 -1 75 1 3 12 4
26 1 16 -3 25 0 25 8 0 10 3 10 15 0 8 -7 15 -19 15 -27z m57 1 c-3 -3 -12 -4
-19 -1 -8 3 -5 6 6 6 11 1 17 -2 13 -5z m-1107 -9 c0 -2 -10 -9 -22 -15 -22
-11 -22 -10 -4 4 21 17 26 19 26 11z m1130 -5 c0 -5 -5 -10 -11 -10 -5 0 -7 5
-4 10 3 6 8 10 11 10 2 0 4 -4 4 -10z m-108 -62 c-7 -7 -12 -20 -12 -30 0 -9
-8 -21 -17 -27 -10 -5 -14 -13 -10 -18 5 -4 17 3 28 17 l20 25 -7 -25 c-4 -14
-8 -33 -8 -42 0 -10 -6 -18 -12 -18 -13 0 -28 -45 -25 -73 1 -10 -10 -30 -25
-45 l-27 -27 5 53 c3 28 1 52 -3 52 -5 0 -9 -5 -9 -12 0 -6 -3 -8 -6 -5 -4 3
1 22 10 41 9 19 17 53 19 75 2 41 10 52 21 29 3 -9 15 -2 33 19 15 18 29 30
32 27 3 -2 -1 -10 -7 -16z m-862 -53 c0 -9 -12 -3 -30 15 -16 16 -30 32 -30
35 0 4 14 -3 30 -15 17 -12 30 -28 30 -35z m620 35 c0 -5 -4 -10 -10 -10 -5 0
-10 5 -10 10 0 6 5 10 10 10 6 0 10 -4 10 -10z m-837 -20 c-3 -11 1 -28 8 -37
12 -14 12 -16 -1 -11 -16 5 -27 68 -12 68 6 0 8 -9 5 -20z m849 -27 c22 -20
23 -35 2 -74 -14 -29 -17 -30 -33 -15 -10 9 -23 16 -30 16 -9 0 -9 5 1 23 12
21 14 27 17 55 1 17 21 15 43 -5z m-860 -20 c18 -21 32 -83 18 -83 -5 0 -12 9
-15 20 -3 11 -15 24 -25 30 -12 6 -16 17 -13 30 7 25 15 25 35 3z m773 -3 c3
-6 -1 -7 -9 -4 -18 7 -21 14 -7 14 6 0 13 -4 16 -10z m-679 -69 c-1 -17 -5
-26 -9 -21 -5 4 -6 17 -2 29 9 29 12 26 11 -8z m814 14 c0 -8 -2 -15 -4 -15
-2 0 -6 7 -10 15 -3 8 -1 15 4 15 6 0 10 -7 10 -15z m-641 -21 c-6 -8 -18 -14
-25 -14 -8 0 -20 -11 -26 -25 -6 -14 -15 -25 -19 -25 -5 0 0 13 9 30 9 16 25
30 35 30 9 0 17 7 17 16 0 8 5 12 10 9 8 -5 7 -11 -1 -21z m454 6 c-5 -19 -23
-39 -23 -25 0 9 20 45 24 45 2 0 2 -9 -1 -20z m192 -20 c3 -5 1 -10 -4 -10 -6
0 -11 5 -11 10 0 6 2 10 4 10 3 0 8 -4 11 -10z m-890 -31 c-4 -5 -1 -9 4 -9 6
0 11 5 11 11 0 5 4 8 10 4 6 -3 5 -15 -2 -30 -13 -29 -28 -33 -28 -7 0 14 -2
15 -10 2 -14 -23 -22 -6 -10 24 5 15 15 24 20 21 6 -4 8 -11 5 -16z m362 -31
c-3 -7 -5 -2 -5 12 0 14 2 19 5 13 2 -7 2 -19 0 -25z m-287 2 c0 -5 -7 -10
-16 -10 -8 0 -12 -4 -9 -10 3 -5 2 -10 -4 -10 -17 0 -24 22 -10 31 19 12 39
11 39 -1z m40 -7 c-1 -20 -19 -35 -35 -29 -14 5 -15 9 -5 21 13 16 40 21 40 8z
m106 -5 c-3 -7 -9 -21 -12 -30 -6 -16 -24 -26 -24 -13 0 13 25 55 32 55 6 0 7
-6 4 -12z m-66 -8 c0 -5 -2 -10 -4 -10 -2 0 -12 -3 -20 -6 -12 -5 -15 -2 -10
10 7 17 34 22 34 6z m30 3 c0 -14 -19 -38 -25 -32 -8 8 5 39 16 39 5 0 9 -3 9
-7z m89 -19 c19 -4 31 -13 32 -23 0 -10 2 -11 6 -3 2 6 11 12 19 12 8 0 14 5
14 10 0 6 5 10 11 10 11 0 3 -38 -11 -53 -4 -5 -26 -4 -48 3 -32 8 -40 14 -36
28 5 16 5 16 -6 0 -13 -21 -40 -24 -40 -5 0 27 10 30 59 21z m641 -4 c0 -5 -7
-7 -15 -4 -8 4 -15 8 -15 10 0 2 7 4 15 4 8 0 15 -4 15 -10z m-1090 -60 c20
-53 24 -58 35 -43 14 19 18 18 101 -32 l42 -24 26 20 c14 11 26 29 26 40 0 10
5 19 10 19 14 0 13 -33 -2 -48 -7 -7 -8 -12 -4 -12 5 0 2 -7 -5 -16 -11 -14
-11 -18 2 -28 23 -16 41 -55 35 -72 -3 -9 -10 -12 -16 -9 -6 4 -8 10 -5 14 2
5 -2 17 -10 27 -9 12 -14 14 -15 6 0 -9 -8 -7 -26 7 -15 12 -35 21 -45 21 -10
0 -21 4 -24 10 -3 5 -23 17 -43 26 -56 26 -58 27 -39 11 27 -22 21 -27 -33
-27 -27 0 -50 5 -50 10 0 6 7 10 16 10 26 0 10 25 -18 28 -16 2 -28 -3 -31
-12 -4 -10 -1 -16 9 -16 32 0 6 -25 -29 -28 -28 -2 -37 1 -37 12 0 9 4 16 9
16 5 0 19 30 32 68 27 83 26 82 48 82 13 0 25 -17 41 -60z m250 45 c0 -13 -4
-14 -20 -5 -11 6 -20 13 -20 15 0 3 9 5 20 5 11 0 20 -7 20 -15z m-45 -19 c0
-29 -31 -44 -50 -25 -23 23 -9 51 24 47 18 -2 26 -9 26 -22z m100 4 c-3 -5
-14 -10 -23 -9 -14 0 -13 2 3 9 27 11 27 11 20 0z m790 0 c3 -5 1 -10 -4 -10
-6 0 -11 5 -11 10 0 6 2 10 4 10 3 0 8 -4 11 -10z m-845 -20 c0 -5 9 -6 20 -3
21 6 25 -3 11 -26 -8 -12 -13 -12 -24 -3 -8 7 -22 10 -31 6 -17 -6 -20 4 -10
30 6 15 34 11 34 -4z m133 4 c9 -9 -22 -66 -33 -59 -4 3 -11 -1 -14 -7 -3 -7
-4 -1 -2 15 3 27 -7 36 -19 17 -11 -18 -23 -11 -18 10 4 15 11 18 28 14 13 -3
26 -1 29 5 8 12 20 14 29 5z m762 -67 c0 -61 -3 -73 -16 -74 -13 -1 -17 7 -17
35 0 20 4 46 8 57 5 11 11 28 14 38 9 29 11 20 11 -56z m-79 29 c1 -7 5 -23 9
-36 6 -20 5 -21 -15 -10 -13 7 -19 17 -16 27 3 8 6 22 6 30 0 19 13 9 16 -11z
m-648 -9 c2 -12 -3 -17 -17 -17 -12 0 -21 6 -21 13 0 31 32 34 38 4z m71 -3
c5 -4 -19 -34 -28 -34 -17 1 -31 18 -25 34 4 12 13 15 28 10 11 -4 23 -8 25
-10z m608 -46 c-3 -8 -6 -5 -6 6 -1 11 2 17 5 13 3 -3 4 -12 1 -19z m3 -28 c0
-5 -4 -10 -10 -10 -5 0 -10 5 -10 10 0 6 5 10 10 10 6 0 10 -4 10 -10z m0 -30
c0 -5 -2 -10 -4 -10 -3 0 -8 5 -11 10 -3 6 -1 10 4 10 6 0 11 -4 11 -10z m35
-60 c3 -5 1 -10 -4 -10 -6 0 -11 5 -11 10 0 6 2 10 4 10 3 0 8 -4 11 -10z
m-825 -27 c0 -20 -24 -11 -28 10 -2 12 1 15 12 11 9 -3 16 -13 16 -21z m-270
-33 c0 -5 -4 -10 -10 -10 -5 0 -10 5 -10 10 0 6 5 10 10 10 6 0 10 -4 10 -10z
m-33 -16 c7 -18 -17 -38 -30 -25 -9 9 1 41 14 41 5 0 12 -7 16 -16z m-32 -123
c9 -18 11 -32 5 -36 -8 -5 -40 43 -40 60 0 16 22 1 35 -24z m143 -72 c-16 -10
-33 5 -23 21 5 8 11 8 21 -1 12 -10 12 -14 2 -20z"/>
<path d="M2736 4882 c-2 -4 2 -15 9 -25 8 -12 15 -14 20 -8 3 6 2 11 -4 11 -6
0 -8 7 -5 15 6 15 -11 21 -20 7z"/>
<path d="M1516 4644 c-8 -20 0 -32 14 -18 5 5 5 15 1 22 -6 11 -10 10 -15 -4z"/>
<path d="M1735 4690 c-8 -13 4 -32 16 -25 12 8 12 35 0 35 -6 0 -13 -4 -16
-10z"/>
<path d="M2990 5106 c0 -8 10 -22 21 -30 19 -13 26 -13 63 1 88 35 88 43 -2
43 -65 0 -82 -3 -82 -14z"/>
<path d="M3165 5102 c-36 -21 -88 -43 -174 -73 -81 -29 -105 -61 -97 -134 10
-91 -38 -262 -94 -335 -15 -19 -37 -68 -50 -107 -26 -84 -27 -83 57 -144 103
-77 214 -99 298 -60 82 38 111 94 150 289 41 207 82 310 148 371 14 12 30 20
36 17 6 -4 12 13 16 41 4 27 11 63 15 81 8 31 8 32 -24 32 -20 0 -40 8 -51 20
-16 17 -31 20 -109 20 -69 0 -98 -4 -121 -18z m-170 -152 c3 -5 2 -16 -2 -24
-11 -20 -36 -4 -27 17 7 19 20 22 29 7z m116 -241 c26 -13 43 -65 33 -102 -11
-39 -70 -73 -110 -63 -36 9 -74 50 -74 80 0 81 75 124 151 85z m-191 -164 c-6
-15 -13 -26 -16 -23 -2 3 0 18 6 33 6 15 13 26 16 23 2 -3 0 -18 -6 -33z m-27
-61 c-27 -20 -39 -17 -18 6 10 11 22 17 27 14 5 -3 1 -12 -9 -20z m-72 2 c5 3
9 0 9 -5 0 -6 -12 -11 -26 -11 -23 0 -25 2 -13 16 8 10 15 12 17 5 2 -6 8 -9
13 -5z m86 -42 c-3 -3 -12 -4 -19 -1 -8 3 -5 6 6 6 11 1 17 -2 13 -5z"/>
<path d="M3026 4684 c-19 -18 -21 -85 -4 -102 18 -18 56 -14 68 7 23 45 3 111
-35 111 -7 0 -21 -7 -29 -16z"/>
<path d="M3405 5110 c3 -5 24 -10 45 -10 21 0 42 5 45 10 4 6 -13 10 -45 10
-32 0 -49 -4 -45 -10z"/>
<path d="M3523 5098 c-21 -23 -36 -68 -47 -144 -6 -40 -5 -41 35 -59 22 -10
51 -32 65 -48 14 -16 26 -28 28 -26 2 2 16 33 31 69 15 36 45 100 66 142 22
43 39 80 39 83 0 3 -44 5 -98 5 -89 0 -100 -2 -119 -22z"/>
<path d="M3781 5103 c-6 -10 -11 -13 -11 -8 -1 10 -95 -175 -117 -230 -33 -82
-33 -83 -13 -129 24 -53 32 -106 19 -123 -18 -21 -31 -131 -18 -154 l11 -21
22 21 c38 36 87 44 145 25 45 -14 52 -21 67 -59 11 -31 25 -47 45 -56 41 -16
52 -41 51 -121 0 -37 3 -68 7 -68 4 0 18 12 32 26 53 56 147 72 175 29 9 -14
21 -22 26 -19 6 4 8 1 6 -7 -8 -22 50 -99 88 -117 39 -18 71 -7 66 22 -2 9 4
16 13 16 18 0 19 5 3 33 -10 20 -10 21 5 8 21 -17 21 -23 -5 90 -15 64 -21
115 -18 159 5 77 4 152 -3 276 -5 97 -10 110 -95 257 -50 88 -55 122 -22 149
22 17 15 18 -223 18 -224 0 -247 -2 -256 -17z m524 -269 c30 -51 31 -82 5
-161 -11 -34 -19 -85 -19 -119 2 -109 0 -129 -12 -117 -6 6 -17 9 -24 7 -15
-6 -28 23 -18 39 4 7 9 4 13 -8 5 -15 8 -16 12 -3 4 8 2 21 -2 28 -7 11 -11
11 -26 -1 -16 -13 -16 -12 -3 10 8 13 20 33 26 45 7 11 13 41 13 65 0 29 9 59
26 89 24 41 25 47 14 83 -7 22 -17 39 -22 39 -4 0 -8 5 -8 12 0 6 -12 27 -27
47 l-26 36 26 -24 c15 -14 38 -44 52 -67z m-495 -152 c0 -4 -5 -13 -11 -19 -8
-8 -8 -21 2 -50 l12 -38 17 40 c14 33 15 41 4 48 -26 15 -14 27 25 27 43 0 64
-17 39 -31 -9 -5 -28 -38 -43 -74 -23 -53 -32 -65 -51 -65 -17 0 -24 7 -29 30
-4 17 -11 28 -16 25 -5 -4 -6 1 -3 9 7 18 -14 86 -27 86 -5 0 -9 5 -9 10 0 6
20 10 45 10 25 0 45 -4 45 -8z m457 -264 c-3 -8 -6 -5 -6 6 -1 11 2 17 5 13 3
-3 4 -12 1 -19z m43 -8 c0 -5 -2 -10 -4 -10 -3 0 -8 5 -11 10 -3 6 -1 10 4 10
6 0 11 -4 11 -10z m50 -64 c0 -2 -7 -6 -15 -10 -8 -3 -15 -1 -15 4 0 6 7 10
15 10 8 0 15 -2 15 -4z m0 -41 c0 -8 -2 -15 -4 -15 -2 0 -6 7 -10 15 -3 8 -1
15 4 15 6 0 10 -7 10 -15z m-60 -40 c0 -20 -49 -40 -64 -25 -7 7 -2 10 17 10
15 0 30 7 33 15 8 19 14 19 14 0z m-38 -70 c3 -14 3 -25 1 -25 -11 0 -29 27
-25 38 6 20 19 14 24 -13z m22 -51 c3 -8 2 -12 -4 -9 -6 3 -10 10 -10 16 0 14
7 11 14 -7z"/>
<path d="M4272 4520 c0 -14 2 -19 5 -12 2 6 2 18 0 25 -3 6 -5 1 -5 -13z"/>
<path d="M4299 5097 c-19 -12 -35 -30 -37 -40 -2 -9 23 -63 56 -120 70 -121
81 -153 81 -227 0 -30 2 -109 3 -175 l3 -120 47 -32 c36 -23 63 -33 110 -38
101 -9 116 -1 174 96 l51 84 56 0 c64 0 101 26 113 78 7 33 45 74 83 88 13 5
21 12 18 15 -3 3 -15 1 -27 -6 -25 -13 -105 -4 -137 17 -17 11 -22 11 -26 1
-4 -10 -7 -11 -18 0 -18 17 -74 15 -89 -3 -23 -28 -111 -12 -124 22 -8 19 11
53 29 53 11 0 15 12 15 40 0 22 -4 40 -10 40 -5 0 -10 7 -10 14 0 14 25 31 80
56 14 6 33 19 43 28 17 15 17 16 -5 28 -12 7 -29 9 -38 5 -8 -5 -34 -7 -58 -6
-31 2 -49 9 -67 29 -22 23 -26 46 -9 46 3 0 3 -4 -1 -9 -3 -5 -1 -12 5 -16 5
-3 10 0 10 7 0 8 5 6 11 -4 5 -10 21 -18 34 -18 13 0 26 -4 30 -9 3 -6 18 -6
37 -1 25 8 34 6 44 -8 12 -15 15 -15 23 -2 11 16 4 33 -10 25 -5 -4 -9 -1 -9
5 0 7 -7 9 -16 6 -9 -4 -23 -1 -31 5 -10 9 -17 9 -25 1 -9 -9 -6 -12 12 -12
13 0 21 -3 17 -6 -11 -11 -77 6 -77 21 0 7 -6 16 -12 19 -7 3 -1 3 13 0 24 -5
26 -3 22 20 l-5 26 -173 0 c-163 0 -174 -1 -206 -23z m300 -159 c1 -4 -13 -15
-30 -23 -29 -16 -31 -15 -27 2 2 10 10 18 18 18 8 0 17 11 19 25 3 23 4 24 12
5 4 -11 8 -23 8 -27z m-139 -101 c0 -18 -2 -19 -10 -7 -13 20 -13 43 0 35 6
-3 10 -16 10 -28z m76 -6 c-3 -4 -1 -13 4 -21 9 -15 -5 -40 -22 -40 -6 0 -4 7
3 17 10 11 10 17 3 20 -6 2 -20 11 -30 19 -18 14 -18 15 4 9 13 -4 22 -2 22 5
0 6 5 8 10 5 6 -4 8 -10 6 -14z m82 -197 c29 -5 33 -8 28 -27 -3 -12 -6 -28
-6 -34 0 -23 -19 -14 -26 12 -5 21 -12 25 -40 25 -27 0 -34 -4 -34 -20 0 -23
18 -27 26 -5 12 30 24 14 24 -30 0 -49 -22 -63 -35 -22 l-7 22 -7 -25 c-5 -14
-5 -29 -1 -33 14 -16 55 -2 65 21 13 29 35 28 35 -2 0 -51 -6 -55 -83 -50 -96
7 -107 11 -83 30 22 16 37 124 17 124 -6 0 -11 6 -11 14 0 13 53 13 138 0z"/>
<path d="M4728 5113 c6 -2 18 -2 25 0 6 3 1 5 -13 5 -14 0 -19 -2 -12 -5z"/>
<path d="M4780 5113 c0 -5 8 -17 16 -28 15 -20 15 -20 30 -1 21 29 18 36 -16
36 -16 0 -30 -3 -30 -7z"/>
<path d="M4861 5058 c-9 -53 -8 -64 4 -71 8 -4 15 -13 15 -19 0 -6 -7 -5 -17
3 -10 8 4 -14 31 -49 27 -35 55 -66 63 -69 17 -7 35 16 28 35 -3 8 3 7 19 -4
15 -9 27 -11 30 -5 4 5 2 12 -4 16 -15 9 -12 36 6 57 14 14 14 20 4 33 -13 15
-31 84 -31 118 0 14 -10 17 -69 17 l-68 0 -11 -62z m76 -104 c32 -9 17 -25
-15 -18 -35 8 -52 24 -26 24 10 0 29 -3 41 -6z"/>
<path d="M5038 5115 c-10 -11 15 -110 32 -125 9 -9 24 -29 33 -45 16 -29 16
-27 17 73 l0 102 -38 0 c-21 0 -41 -2 -44 -5z"/>
<path d="M0 4927 c1 -164 2 -170 16 -137 10 22 16 66 16 120 1 50 5 88 12 92
7 5 4 8 -6 8 -28 0 -23 38 5 39 12 0 29 1 37 2 8 1 44 -1 80 -4 55 -5 59 -5
25 3 -22 6 -52 12 -66 14 -14 1 -30 5 -35 8 -5 3 -26 10 -46 16 l-38 10 0
-171z"/>
<path d="M2969 5053 c-12 -15 -12 -16 4 -10 10 4 23 7 28 7 6 0 7 5 4 10 -9
15 -21 12 -36 -7z"/>
<path d="M173 5023 c-7 -2 -13 -11 -13 -18 0 -8 -8 -19 -17 -24 -16 -9 -16
-12 -3 -21 12 -9 10 -10 -7 -5 -25 7 -32 -9 -8 -19 23 -8 41 2 71 41 21 28 24
37 13 44 -15 10 -18 10 -36 2z m8 -36 c-10 -9 -11 -8 -5 6 3 10 9 15 12 12 3
-3 0 -11 -7 -18z"/>
<path d="M40 4942 c0 -4 9 -8 19 -8 11 0 17 4 15 8 -3 4 -12 8 -20 8 -8 0 -14
-4 -14 -8z"/>
<path d="M5049 4948 c-7 -26 -5 -46 7 -59 9 -10 14 -26 12 -36 -1 -10 1 -19 6
-20 14 -2 26 -26 26 -55 0 -15 4 -29 8 -32 13 -8 14 65 1 80 -8 10 -8 14 0 14
6 0 11 10 10 23 0 22 0 22 -10 -2 -14 -36 -34 -10 -34 45 0 28 -4 44 -12 44
-7 0 -13 -1 -14 -2z"/>
<path d="M5080 4907 c0 -19 16 -31 24 -18 3 5 -1 14 -9 21 -12 10 -15 10 -15
-3z"/>
<path d="M66 4891 c-25 -27 -16 -44 11 -22 12 10 18 23 14 30 -5 8 -13 6 -25
-8z"/>
<path d="M3423 4853 c-64 -81 -88 -139 -98 -235 -4 -48 -26 -150 -52 -248 -8
-30 -15 -65 -16 -77 -1 -11 -5 -19 -8 -17 -4 2 -9 -8 -12 -22 -4 -25 29 -77
104 -159 15 -16 36 -41 46 -54 l19 -23 19 41 c10 23 22 41 27 41 4 0 7 3 6 8
-4 14 24 82 33 82 6 0 8 4 5 8 -3 5 2 34 10 65 9 37 13 84 10 135 -5 85 8 165
51 304 l26 87 -24 36 c-23 34 -72 65 -101 65 -8 0 -28 -17 -45 -37z m-108
-613 c3 -5 1 -10 -4 -10 -6 0 -11 5 -11 10 0 6 2 10 4 10 3 0 8 -4 11 -10z
m131 -11 c3 -6 2 -15 -2 -19 -12 -12 -38 5 -30 19 9 14 23 14 32 0z m-96 -9
c0 -5 -4 -10 -10 -10 -5 0 -10 5 -10 10 0 6 5 10 10 10 6 0 10 -4 10 -10z m35
-10 c3 -5 3 -15 -1 -21 -6 -11 -23 6 -24 24 0 10 18 9 25 -3z m-25 -40 c0 -5
-5 -10 -11 -10 -5 0 -7 5 -4 10 3 6 8 10 11 10 2 0 4 -4 4 -10z m-10 -30 c0
-5 -4 -10 -10 -10 -5 0 -10 5 -10 10 0 6 5 10 10 10 6 0 10 -4 10 -10z"/>
<path d="M5028 4863 c-24 -6 -23 -20 2 -33 18 -9 20 -8 20 15 0 14 -1 24 -2
24 -2 -1 -11 -3 -20 -6z"/>
<path d="M5067 4786 c-3 -8 0 -17 7 -19 10 -4 12 1 9 14 -6 23 -9 24 -16 5z"/>
<path d="M3608 4744 c-10 -16 -47 -158 -53 -204 -4 -24 -8 -48 -11 -51 -2 -4
9 -12 24 -18 15 -6 33 -21 40 -32 12 -18 11 -18 -8 -7 -11 7 -20 16 -20 19 0
4 -9 9 -19 12 -15 4 -20 -2 -23 -24 -3 -15 0 -35 5 -44 21 -39 -19 -199 -81
-321 -17 -34 -28 -64 -25 -68 4 -3 28 -6 55 -6 27 0 61 -6 76 -14 29 -15 140
-135 160 -173 15 -27 16 -83 2 -83 -5 0 -10 12 -10 26 0 39 -16 62 -98 147
-74 75 -78 77 -124 77 l-48 0 0 -45 c0 -39 4 -47 23 -54 27 -11 107 -90 107
-107 0 -14 -38 -49 -45 -42 -3 3 1 11 10 18 8 7 15 17 15 22 0 14 -75 88 -88
88 -25 0 -42 33 -42 81 0 27 -3 49 -7 48 -5 0 -29 -33 -55 -72 -63 -97 -158
-199 -217 -236 -46 -27 -61 -30 -61 -10 0 5 17 17 38 28 49 25 159 141 219
231 l46 70 -49 56 c-27 31 -68 81 -92 110 -23 30 -47 54 -53 54 -37 0 -97 -30
-145 -72 -30 -26 -62 -48 -69 -48 -8 0 -35 -10 -60 -22 -35 -17 -45 -27 -45
-47 0 -23 -1 -24 -13 -7 -8 11 -34 22 -64 26 -29 5 -73 23 -105 43 -60 39
-143 63 -120 35 10 -13 10 -17 -3 -22 -8 -3 -15 -17 -15 -33 1 -25 2 -26 14
-10 17 22 51 23 42 1 -3 -9 -6 -20 -6 -26 0 -6 -10 -8 -23 -4 -28 7 -42 -13
-52 -74 -4 -25 -14 -58 -22 -73 -19 -37 -9 -46 20 -19 13 12 26 19 30 16 8 -9
-47 -54 -66 -54 -9 0 -19 -5 -22 -10 -10 -16 -113 -90 -125 -90 -22 0 -3 25
51 69 59 48 94 102 104 163 8 46 2 57 -22 36 -10 -8 -37 -18 -60 -22 -24 -3
-62 -9 -85 -12 -54 -8 -74 -26 -82 -72 -13 -75 -39 -161 -47 -156 -5 3 -9 14
-9 25 0 11 -10 23 -23 28 -31 12 -110 6 -115 -8 -6 -17 -22 -13 -22 5 0 11 -8
14 -32 12 -27 -2 -33 -8 -40 -35 -12 -44 -28 -42 -18 2 l8 35 -39 0 c-32 0
-48 -8 -83 -40 -40 -37 -64 -52 -52 -31 3 5 -25 8 -63 7 -38 0 -67 -4 -64 -8
12 -21 -61 14 -95 46 -33 29 -62 89 -62 127 0 17 -8 43 -18 57 -10 15 -34 58
-52 95 -67 140 -112 164 -309 168 -117 2 -131 -5 -131 -69 0 -37 -15 -73 -36
-85 -8 -5 -14 -25 -14 -48 0 -24 -4 -38 -10 -34 -5 3 -10 23 -10 44 0 28 6 42
21 52 23 16 43 89 34 129 -5 24 -13 28 -70 39 -35 6 -82 9 -104 5 -27 -4 -59
0 -104 15 -53 18 -73 31 -103 67 -20 25 -47 50 -61 55 -28 10 -187 -14 -243
-37 -47 -20 -103 -20 -172 1 -32 9 -70 15 -85 13 l-28 -3 -3 -141 -3 -141 50
-22 c39 -16 69 -21 131 -20 80 1 83 0 117 -32 71 -69 102 -180 78 -284 -16
-68 -2 -102 60 -145 47 -32 66 -63 64 -103 -1 -17 -3 -14 -10 9 -5 18 -26 46
-47 63 -95 78 -101 92 -82 191 7 38 10 84 6 106 -11 58 -52 130 -91 160 -33
25 -39 26 -105 20 -51 -5 -76 -3 -97 7 -15 8 -38 18 -51 21 l-22 7 2 -618 3
-618 25 0 c22 0 27 7 38 54 7 29 20 65 29 78 16 24 83 63 133 78 14 4 57 25
97 48 52 29 70 44 66 56 -4 12 -3 13 5 3 11 -17 33 3 74 67 15 25 28 39 28 31
0 -7 -14 -35 -31 -61 -23 -37 -33 -66 -39 -121 -4 -40 -14 -102 -21 -137 -12
-58 -11 -64 5 -76 11 -8 32 -11 54 -8 46 7 33 -9 -21 -27 -28 -9 -41 -20 -51
-45 -8 -18 -38 -51 -68 -74 -30 -22 -60 -51 -66 -63 -13 -25 -52 -148 -47
-148 2 0 21 28 43 63 22 35 54 77 71 94 16 17 27 34 23 38 -4 5 -2 6 3 2 6 -3
31 8 55 24 33 22 46 26 52 17 15 -24 8 -38 -34 -64 -23 -15 -49 -34 -58 -43
-23 -23 -70 -88 -70 -97 0 -4 -10 -21 -23 -38 -36 -47 -39 -64 -16 -71 11 -4
18 -9 16 -12 -3 -2 -15 0 -26 7 -17 8 -22 8 -27 -3 -8 -22 -111 -94 -164 -117
-52 -21 -55 -26 -58 -85 -3 -49 -1 -57 13 -51 9 3 13 2 10 -3 -3 -5 5 -17 17
-25 12 -9 18 -16 13 -16 -6 0 -3 -6 6 -13 8 -7 18 -20 22 -30 4 -9 18 -22 32
-27 14 -5 25 -14 25 -20 0 -5 7 -10 15 -10 9 0 18 -6 21 -14 3 -8 12 -17 20
-20 9 -3 12 -1 9 4 -12 19 79 -1 97 -22 10 -11 23 -46 29 -77 11 -49 17 -60
42 -71 16 -7 49 -31 72 -54 34 -33 45 -50 50 -88 10 -65 0 -100 -45 -156 -22
-27 -37 -52 -33 -56 3 -3 2 -6 -4 -6 -6 0 -18 -19 -27 -41 -20 -50 -15 -71 52
-204 52 -104 121 -175 192 -199 26 -9 102 -17 180 -20 74 -3 145 -8 157 -10
27 -6 90 26 111 55 13 19 21 21 73 15 42 -4 59 -2 59 6 0 9 3 9 11 1 11 -11
19 -10 139 22 64 17 106 41 105 60 0 16 -46 77 -92 122 -24 23 -43 46 -43 52
0 20 -58 41 -137 50 -87 9 -123 23 -123 47 0 14 2 14 16 0 17 -18 34 -22 117
-30 72 -8 134 -32 142 -57 4 -10 22 -31 41 -46 19 -14 41 -38 49 -52 35 -65
81 -101 160 -126 90 -29 143 -32 152 -10 7 19 2 24 -25 30 -32 6 -57 26 -71
56 -7 16 -26 43 -42 60 -16 17 -29 37 -29 43 0 7 -7 21 -15 32 -8 10 -15 28
-15 40 0 13 -10 26 -26 33 -34 15 -25 25 10 11 15 -5 29 -18 32 -27 15 -44 50
-105 59 -102 5 2 9 9 7 15 -1 7 10 14 25 17 29 5 48 -2 25 -10 -6 -3 -10 -9
-6 -14 3 -5 -1 -9 -8 -9 -7 0 -19 -4 -27 -9 -10 -7 -6 -20 23 -65 32 -50 39
-56 70 -56 31 0 36 4 51 45 10 25 24 50 32 56 11 10 11 15 -4 32 -11 12 -12
17 -4 12 11 -6 13 -4 6 11 -11 28 -19 131 -9 121 5 -5 14 -27 20 -50 8 -33 14
-41 30 -39 18 3 18 3 -1 -13 -11 -9 -15 -14 -8 -11 6 4 13 -1 15 -9 2 -12 14
-7 53 21 66 48 163 94 197 94 18 0 42 -13 67 -35 39 -35 39 -35 108 -29 63 6
136 -3 188 -22 17 -7 18 -6 7 8 -7 8 -10 22 -6 31 6 16 76 29 85 15 3 -4 27
-1 55 7 54 16 103 20 88 6 -5 -5 -36 -17 -69 -27 -33 -10 -70 -29 -83 -41
l-23 -23 34 -40 c34 -40 82 -171 79 -215 0 -10 10 -34 24 -53 26 -33 26 -33
90 -27 44 5 69 4 79 -5 8 -6 18 -9 24 -6 10 7 26 82 22 109 -2 17 14 24 22 9
4 -6 22 -7 84 -3 15 1 46 58 38 71 -7 12 -33 2 -57 -22 -22 -22 -76 -24 -85
-2 -3 9 6 27 23 45 26 28 27 30 9 43 -10 7 -15 18 -11 24 11 18 45 14 73 -8
34 -27 42 -17 15 18 -12 15 -33 49 -48 75 -20 39 -28 46 -39 37 -24 -20 -25 6
0 32 17 19 30 24 49 21 28 -6 80 11 107 34 15 12 20 11 39 -14 15 -18 24 -23
27 -15 7 19 23 14 23 -7 0 -25 15 -35 37 -22 18 9 22 6 92 -61 20 -19 32 -24
42 -17 12 8 11 12 -6 22 -33 20 -115 103 -115 117 0 7 16 -3 35 -23 19 -20 59
-52 88 -71 30 -20 62 -52 73 -71 20 -37 29 -32 36 20 2 24 0 29 -15 27 -10 -2
-25 2 -33 9 -8 6 -29 19 -46 29 -58 31 -44 37 82 35 66 -1 123 2 126 7 3 4 9
6 14 3 5 -3 25 -6 45 -7 19 -1 33 -4 30 -6 -3 -3 2 -13 11 -23 9 -10 13 -23 9
-28 -8 -14 -38 -14 -52 0 -9 9 -20 9 -42 -1 -37 -15 -38 -22 -8 -43 l22 -16
-25 2 c-21 2 -25 -3 -28 -30 -4 -44 -23 -57 -65 -45 l-34 10 -16 -72 c-9 -39
-18 -82 -21 -96 -2 -14 -11 -42 -19 -62 -8 -20 -12 -40 -9 -44 4 -4 2 -4 -5 0
-8 5 -20 -20 -39 -79 -22 -71 -25 -95 -19 -143 4 -31 7 -77 8 -102 1 -52 -25
-152 -41 -158 -6 -2 -8 5 -5 17 3 14 1 21 -8 21 -8 0 -63 9 -124 20 -188 34
-223 27 -245 -48 -8 -26 -16 -52 -17 -58 -2 -6 21 -16 52 -23 89 -20 184 -91
211 -159 1 -1 39 22 85 53 46 30 90 55 97 55 18 0 15 9 -18 47 -49 55 -37 76
13 22 23 -26 50 -49 59 -52 10 -4 15 -12 13 -20 -3 -7 6 -24 20 -37 15 -14 25
-18 25 -11 0 11 3 11 14 1 8 -6 12 -18 9 -26 -3 -8 0 -14 6 -14 7 0 14 6 17
14 7 17 41 9 66 -16 10 -10 30 -18 46 -18 33 0 57 -14 48 -28 -7 -12 29 -26
43 -18 4 3 6 17 3 31 -3 20 0 25 16 25 12 0 23 9 27 20 4 11 18 27 33 35 l27
14 -25 0 c-14 0 -45 -8 -69 -19 -56 -26 -61 -25 -150 9 -42 17 -84 32 -94 35
-26 8 -10 28 16 21 12 -4 53 -20 90 -37 l68 -30 51 21 c28 12 68 21 88 21 40
0 55 16 43 48 -9 23 -44 51 -65 52 -19 0 -48 -36 -48 -62 0 -12 -11 -19 -35
-24 -42 -8 -65 0 -65 21 0 21 -29 52 -60 64 -22 8 -30 4 -72 -42 -42 -48 -48
-51 -63 -36 -13 13 -14 23 -6 60 6 24 11 53 11 63 0 17 -4 16 -30 -9 -20 -19
-27 -32 -20 -39 14 -14 13 -26 -3 -26 -7 0 -26 13 -42 30 -26 27 -26 35 -1 31
5 -1 26 15 47 35 30 29 37 43 33 61 -8 29 3 29 33 1 13 -12 23 -17 24 -12 0 5
2 30 5 57 4 38 2 47 -11 47 -11 0 -15 11 -15 38 0 38 0 38 35 34 32 -4 34 -6
29 -31 -4 -14 -12 -32 -18 -40 -8 -11 -8 -13 2 -7 21 13 44 77 31 92 -11 13
-4 86 12 116 12 22 -4 32 -37 24 -17 -5 -24 -2 -24 8 0 7 -8 16 -18 18 -16 5
-18 16 -16 109 2 120 14 165 42 150 21 -11 79 11 88 33 3 8 14 18 25 21 12 4
19 16 19 31 0 13 5 24 10 24 6 0 10 -7 10 -15 0 -12 13 -15 60 -15 49 0 61 3
70 20 6 11 14 19 18 16 12 -7 37 18 40 41 2 17 -2 23 -16 23 -11 0 -25 7 -32
15 -7 8 -25 15 -40 15 -15 0 -30 7 -33 14 -5 12 8 15 71 16 42 0 110 2 149 3
70 2 73 1 73 -20 0 -13 -4 -23 -10 -23 -5 0 -10 -10 -10 -21 0 -18 2 -19 15
-9 9 7 14 15 11 17 -2 2 -1 16 3 30 6 24 9 25 106 28 55 1 105 4 111 6 16 6
113 -50 124 -71 6 -11 9 -50 8 -86 l-3 -67 67 -33 c80 -40 153 -51 231 -34 63
13 85 30 35 27 -22 -1 -32 2 -30 11 1 9 -5 8 -23 -4 -16 -10 -25 -12 -25 -5 0
6 7 14 15 17 23 9 18 33 -10 44 -14 5 -25 16 -25 25 0 16 16 21 22 6 2 -5 15
-12 29 -16 26 -6 26 -5 33 57 3 35 9 89 12 120 6 51 3 62 -26 113 -38 67 -34
81 7 28 51 -65 56 -88 38 -178 -8 -44 -15 -83 -15 -86 0 -3 14 -4 30 -1 18 3
30 0 30 -7 0 -10 -5 -12 -37 -15 -7 -1 -13 -5 -13 -9 0 -35 1 -38 18 -33 23 7
46 -8 39 -27 -4 -11 0 -13 14 -10 10 3 19 0 19 -6 0 -6 -6 -12 -12 -12 -7 -1
1 -4 17 -8 17 -4 31 -6 33 -5 1 0 9 52 17 114 9 62 22 142 30 177 19 81 19 83
-3 83 -10 0 -24 6 -30 12 -10 10 -15 10 -22 -2 -8 -12 -10 -12 -16 3 -3 9 -17
17 -30 17 -12 0 -27 7 -32 16 -5 8 -15 17 -23 18 -50 10 -72 31 -58 57 6 12 5
19 -5 22 -21 8 -8 67 15 67 18 0 19 1 3 25 -16 24 -17 24 -30 8 -13 -16 -14
-15 -8 12 3 17 9 39 14 50 51 118 70 165 70 174 0 17 -61 81 -76 81 -8 0 -37
20 -63 45 -40 38 -54 45 -74 40 -14 -4 -34 -2 -44 4 -10 6 -13 11 -7 11 6 0
21 9 34 20 21 18 21 22 10 51 -17 41 -64 86 -107 104 -49 21 -50 20 -58 -27
-4 -23 -11 -49 -16 -58 -5 -8 -12 -31 -17 -50 -7 -31 -13 -36 -48 -43 -21 -5
-51 -12 -66 -17 -16 -4 -30 -5 -32 -1 -3 4 -27 5 -54 1 -44 -5 -49 -4 -44 12
2 10 8 18 12 18 5 0 22 14 40 31 21 22 28 35 21 43 -14 16 22 74 52 85 13 5
39 23 56 39 l33 30 -35 11 c-19 7 -48 9 -63 6 -21 -4 -24 -3 -10 3 17 7 12 11
-28 21 -40 10 -57 9 -105 -5 -89 -25 -121 -14 -40 14 82 28 105 28 204 -3 44
-14 83 -25 88 -25 4 0 7 11 7 25 0 14 9 33 20 42 11 10 20 24 20 31 0 8 22 36
49 63 46 45 53 49 99 49 35 0 54 5 66 19 13 14 14 20 4 23 -7 3 7 5 30 6 25 1
59 -6 80 -16 23 -12 46 -16 62 -12 31 7 70 64 70 101 0 26 -9 39 -76 111 -9 9
-43 26 -75 37 -50 17 -60 17 -70 5 -8 -10 -34 -14 -84 -14 -58 0 -78 4 -105
23 -53 35 -48 43 27 46 102 4 111 5 108 12 -9 14 111 7 143 -8 27 -13 37 -14
40 -4 3 8 8 7 16 -5 9 -12 15 -14 20 -6 4 7 1 12 -6 12 -10 0 -10 2 1 9 9 6
22 4 37 -6 13 -8 26 -14 30 -13 3 1 19 -17 34 -40 15 -23 31 -41 36 -40 12 2
25 -38 14 -45 -6 -4 -10 -35 -10 -69 0 -145 -96 -244 -216 -222 -19 4 -38 14
-41 22 -4 11 -19 14 -52 13 -105 -4 -171 -58 -205 -167 -6 -18 1 -25 46 -48
68 -34 85 -50 110 -99 11 -22 22 -41 23 -43 4 -5 109 60 117 72 4 6 8 8 8 3 0
-4 22 9 50 28 27 19 52 35 55 35 3 0 26 15 52 34 27 19 67 45 89 58 123 69
149 86 183 113 24 20 35 37 33 50 -3 17 -1 18 8 5 8 -11 9 -7 5 21 -5 25 -2
39 8 48 12 10 16 43 16 172 2 150 1 159 -17 159 -11 0 -25 6 -31 14 -9 10 -32
14 -77 14 -53 -1 -71 3 -97 22 -36 28 -72 28 -101 1 -26 -23 -99 -41 -165 -41
-60 0 -76 15 -18 16 23 0 59 4 79 8 l36 7 -24 24 c-24 24 -33 75 -14 75 6 0
10 -10 10 -23 0 -26 38 -67 62 -67 19 0 28 20 28 61 0 48 25 94 70 130 24 19
56 47 72 63 16 16 31 26 35 22 3 -3 1 -6 -5 -6 -7 0 -12 -4 -12 -10 0 -5 7
-10 15 -10 10 0 15 10 14 33 0 17 -3 26 -6 19 -3 -9 -9 -10 -17 -2 -9 7 -38 7
-96 -1 -60 -8 -89 -8 -107 0 -13 6 -38 11 -56 11 -43 0 -77 24 -70 50 6 24 31
25 81 4 24 -10 68 -16 126 -16 86 0 91 1 112 27 20 25 21 31 9 74 -18 67 -49
124 -88 158 -52 45 -262 183 -280 183 -10 0 -14 6 -11 14 4 9 -19 41 -58 83
-35 37 -75 83 -89 102 l-26 33 -26 -28 c-17 -18 -28 -44 -32 -78 -12 -96 -84
-285 -93 -244 -2 9 2 27 8 39 13 24 13 24 -49 -18 -24 -16 -47 -23 -80 -22
l-46 1 52 13 c57 14 135 72 160 118 8 16 18 59 22 95 5 37 11 74 15 84 6 12 0
20 -20 30 -30 14 -133 135 -134 156 0 15 -63 16 -93 1 -12 -7 -37 -25 -55 -41
-51 -44 -67 -35 -68 37 -1 101 -1 103 -44 130 -28 18 -42 35 -47 55 -7 37 -18
46 -75 61 -40 11 -49 10 -84 -8 -27 -13 -42 -29 -49 -51 -26 -87 -59 44 -38
153 7 39 13 86 13 105 -1 37 -23 89 -32 74z m232 -309 c0 -8 -4 -15 -10 -15
-5 0 -10 7 -10 15 0 8 5 15 10 15 6 0 10 -7 10 -15z m-25 -195 c3 -5 -1 -10
-9 -10 -9 0 -16 5 -16 10 0 6 4 10 9 10 6 0 13 -4 16 -10z m-3317 -190 c17
-11 32 -25 32 -31 0 -6 -16 1 -36 16 -31 24 -39 26 -62 16 -25 -11 -26 -10 -8
4 26 20 34 19 74 -5z m2183 -4 c1 -17 2 -17 6 -3 2 9 14 17 25 17 14 0 18 -5
14 -16 -3 -9 -6 -22 -6 -30 0 -10 -6 -11 -24 -4 -13 5 -27 6 -30 3 -3 -4 -6
-1 -6 6 0 8 -7 10 -20 6 -11 -3 -20 -2 -20 4 0 24 13 39 36 39 17 0 24 -6 25
-22z m93 -4 c3 -5 3 -18 0 -29 -4 -14 -12 -19 -25 -16 -18 5 -26 33 -12 46 9
10 31 9 37 -1z m51 -24 c6 -20 8 -20 12 -5 7 26 20 21 26 -10 3 -16 4 -29 3
-30 -2 -3 -79 18 -84 22 -6 6 18 45 27 45 5 0 12 -10 16 -22z m-2395 8 c0 -3
-4 -8 -10 -11 -5 -3 -10 -1 -10 4 0 6 5 11 10 11 6 0 10 -2 10 -4z m2498 -32
c3 -23 -17 -37 -37 -24 -19 11 -4 52 17 48 10 -2 18 -13 20 -24z m-301 -12 c2
-14 -3 -25 -13 -29 -22 -8 -33 8 -23 35 11 28 31 25 36 -6z m43 7 c11 -8 12
-12 3 -16 -7 -2 -13 -11 -13 -19 0 -8 -4 -14 -9 -14 -5 0 -9 14 -9 30 1 33 5
35 28 19z m-2452 -12 c21 4 33 2 29 -3 -10 -18 -64 -15 -78 3 -11 15 -11 16 0
6 8 -7 28 -9 49 -6z m452 -54 c0 -7 -4 -13 -9 -13 -5 0 -8 7 -7 16 2 29 -28
39 -58 19 -25 -17 -26 -19 -11 -41 18 -27 20 -80 4 -90 -8 -5 -10 6 -7 34 4
46 -8 57 -46 42 -20 -7 -28 -3 -52 23 -16 17 -21 25 -12 18 10 -7 25 -11 33
-7 9 3 15 0 15 -9 0 -8 7 -15 16 -15 8 0 13 3 11 8 -4 7 5 16 63 61 l25 19 17
-26 c10 -15 18 -33 18 -39z m2099 41 c3 -4 0 -9 -6 -11 -7 -3 -13 -11 -13 -19
0 -8 -5 -14 -11 -14 -6 0 -9 9 -6 20 3 11 1 23 -4 26 -5 3 -9 -4 -9 -15 0 -22
-4 -24 -33 -13 -16 7 -16 9 -2 29 13 18 20 20 46 13 18 -5 34 -12 38 -16z m24
-24 c-3 -11 -9 -20 -14 -20 -10 0 -11 12 -3 34 9 22 23 10 17 -14z m58 -10 c7
-24 7 -24 8 -2 1 25 1 25 35 12 20 -7 24 -6 19 5 -3 8 0 15 6 15 16 0 14 -116
-3 -148 -8 -15 -17 -45 -21 -66 -5 -25 -11 -34 -18 -27 -6 6 -4 25 8 58 18 50
32 146 18 127 -12 -18 -103 6 -103 27 0 38 40 37 51 -1z m-2535 -5 c3 -14 10
-25 15 -25 5 0 9 -6 9 -12 -1 -15 -50 38 -50 53 0 20 20 8 26 -16z m624 11 c0
-7 -11 -16 -25 -18 -24 -5 -34 10 -18 25 12 12 43 7 43 -7z m1380 -4 c0 -23
-8 -32 -25 -26 -17 7 -7 44 11 44 8 0 14 -8 14 -18z m-2143 -7 c4 -4 1 -5 -7
0 -11 6 -12 5 -5 -3 6 -6 24 -18 40 -26 l30 -16 -29 0 c-31 0 -66 24 -66 46 0
13 25 13 37 -1z m251 -5 c-7 -11 -15 -15 -17 -9 -2 6 3 15 10 20 20 12 21 11
7 -11z m-352 -6 c18 -14 18 -15 -5 -4 -12 7 -32 10 -42 7 -10 -3 -17 -1 -13 4
8 14 38 11 60 -7z m2510 -11 c-10 -10 -19 5 -10 18 6 11 8 11 12 0 2 -7 1 -15
-2 -18z m-1585 -10 c-12 -20 -14 -14 -5 12 4 9 9 14 11 11 3 -2 0 -13 -6 -23z
m1299 -23 c0 -20 -5 -30 -15 -30 -16 0 -19 17 -9 44 10 26 24 18 24 -14z
m-2040 0 c0 -5 -7 -10 -16 -10 -8 0 -12 5 -9 10 3 6 10 10 16 10 5 0 9 -4 9
-10z m-54 -54 c12 -13 10 -14 -21 -9 -30 5 -39 2 -51 -16 -22 -31 -35 -25 -18
9 12 23 22 30 45 30 17 0 37 -6 45 -14z m2119 -22 c12 -12 13 -19 4 -30 -26
-31 -48 -10 -33 30 8 20 9 20 29 0z m-2065 -23 c0 -13 -49 -20 -57 -8 -3 5 -2
8 3 5 5 -3 18 -2 29 3 11 4 21 8 23 8 1 1 2 -3 2 -8z m1623 -26 c-3 -13 -9
-22 -14 -19 -10 6 -12 38 -3 47 13 12 21 -3 17 -28z m2862 -65 c3 -5 2 -10 -4
-10 -5 0 -13 5 -16 10 -3 6 -2 10 4 10 5 0 13 -4 16 -10z m-1655 -30 c0 -5 -4
-10 -10 -10 -5 0 -10 5 -10 10 0 6 5 10 10 10 6 0 10 -4 10 -10z m-550 -115
c85 -3 212 -11 282 -17 112 -10 130 -14 142 -32 7 -12 44 -57 81 -101 109
-130 101 -73 97 -738 -2 -317 -7 -575 -12 -572 -4 3 -11 -2 -14 -11 -10 -25
-7 -34 9 -28 13 5 15 -9 15 -95 0 -119 -8 -144 -76 -223 -27 -31 -61 -75 -76
-97 l-27 -40 -393 -3 c-379 -3 -579 -1 -585 6 -3 3 13 229 23 314 l6 52 74 0
c40 0 75 4 78 9 13 20 25 154 26 271 0 69 -2 305 -5 525 l-5 400 -84 0 c-46 0
-87 3 -91 6 -3 4 -1 34 4 67 5 33 7 120 4 192 l-6 132 189 -6 c104 -3 259 -9
344 -11z m1895 -183 l0 -190 -29 -6 c-15 -3 -137 -6 -270 -7 -232 0 -410 -10
-422 -21 -3 -4 -1 -64 4 -135 7 -103 6 -130 -5 -139 -18 -15 -16 -27 3 -20 14
5 15 -4 11 -86 -16 -282 -31 -616 -31 -708 l-1 -105 57 3 c32 2 66 -2 77 -7
12 -7 21 -7 23 -1 2 5 86 12 188 15 109 4 199 12 220 19 21 8 60 11 98 8 l64
-5 -7 -191 c-4 -105 -8 -192 -9 -192 0 -1 -250 -5 -554 -8 -632 -9 -568 -19
-565 94 1 36 6 462 11 948 11 997 3 917 91 925 25 3 271 3 546 2 l500 -3 0
-190z m-2681 160 c-3 -15 4 -63 15 -106 17 -63 21 -110 21 -225 0 -93 6 -168
15 -206 21 -89 19 -157 -6 -189 l-21 -27 -104 7 -104 7 0 -26 c0 -40 34 -207
120 -597 43 -195 86 -395 95 -445 9 -49 19 -98 21 -107 5 -17 -8 -18 -174 -18
l-180 0 -6 28 c-4 15 -39 128 -78 252 -74 234 -76 241 -132 535 -19 99 -44
219 -56 268 l-22 87 -45 0 -46 0 6 -142 c3 -79 11 -243 18 -366 12 -211 5
-447 -18 -614 l-5 -38 -54 0 c-30 0 -54 5 -54 10 0 6 -9 10 -20 10 -11 0 -20
-4 -20 -10 0 -6 -34 -10 -83 -10 -123 0 -122 -1 -122 162 0 103 -4 140 -16
163 -28 52 -30 83 -13 173 13 69 15 115 9 222 -9 156 -8 1139 1 1187 l6 33
337 3 c185 1 423 3 528 5 l193 2 -6 -28z m-1566 -35 c2 -20 1 -37 -1 -37 -9 0
-67 22 -67 26 0 11 45 54 54 51 6 -2 12 -20 14 -40z m191 -57 c4 -24 4 -25 10
-3 5 17 10 20 21 13 10 -7 12 -12 4 -17 -6 -5 -15 -19 -19 -32 -5 -17 -10 -20
-18 -12 -6 6 -21 11 -34 11 -26 0 -28 7 -8 34 8 10 12 23 8 28 -3 6 3 8 13 6
11 -2 21 -14 23 -28z m128 8 c-3 -8 -6 -5 -6 6 -1 11 2 17 5 13 3 -3 4 -12 1
-19z m4443 -72 c0 -2 -9 -6 -20 -9 -11 -3 -20 -1 -20 4 0 5 9 9 20 9 11 0 20
-2 20 -4z m-200 -70 c0 -11 -19 -15 -25 -6 -3 5 1 10 9 10 9 0 16 -2 16 -4z
m-4318 -48 c-28 -28 -49 -19 -22 10 12 12 26 20 32 16 6 -4 2 -14 -10 -26z
m4317 -13 c0 -5 -6 -24 -12 -41 -11 -28 -14 -30 -44 -22 -35 9 -41 26 -24 71
9 23 12 24 45 13 20 -6 36 -15 35 -21z m-4369 -6 c0 -6 -4 -7 -10 -4 -5 3 -10
11 -10 16 0 6 5 7 10 4 6 -3 10 -11 10 -16z m50 -39 c0 -5 -5 -10 -11 -10 -5
0 -7 5 -4 10 3 6 8 10 11 10 2 0 4 -4 4 -10z m3830 -225 c0 -10 -40 -10 -43 0
-4 8 3 10 19 7 13 -2 24 -6 24 -7z m15 -24 c6 -11 -33 -26 -43 -16 -4 3 0 10
8 15 19 12 27 12 35 1z m25 -30 c0 -5 -6 -14 -14 -20 -11 -9 -16 -9 -21 0 -4
6 -1 15 6 20 18 11 29 11 29 0z m40 -30 c0 -5 -6 -13 -13 -19 -15 -13 -42 1
-33 17 8 13 46 15 46 2z m107 -24 c1 -22 -2 -27 -21 -27 -19 0 -22 4 -18 31 6
39 36 36 39 -4z m36 -17 c-3 -11 -9 -17 -14 -15 -10 7 -1 35 11 35 5 0 6 -9 3
-20z m96 4 c6 -5 -20 -34 -30 -34 -5 0 -9 7 -9 15 0 12 -4 13 -19 6 -22 -12
-32 -5 -24 16 4 11 15 13 42 8 20 -4 38 -9 40 -11z m39 -25 c3 -8 1 -11 -3 -7
-5 4 -14 3 -22 -3 -14 -13 -16 -9 -7 16 7 18 26 15 32 -6z m-4118 -90 c0 -5
-4 -9 -10 -9 -5 0 -10 7 -10 16 0 8 5 12 10 9 6 -3 10 -10 10 -16z m1471 -112
c10 -25 21 -77 24 -114 5 -67 5 -68 -8 -28 -9 25 -16 34 -19 25 -3 -8 -4 -3
-2 13 2 15 -1 27 -7 27 -6 0 -7 5 -4 10 4 6 2 17 -4 24 -15 18 -22 98 -9 94 6
-2 19 -25 29 -51z m-1478 -147 c13 0 7 -20 -7 -20 -17 0 -22 -13 -31 -74 -7
-46 -7 -46 24 -52 17 -4 31 -11 31 -17 0 -10 -92 -3 -124 9 -21 8 -20 21 2 26
26 7 47 109 26 121 -26 15 -5 25 33 16 21 -5 41 -9 46 -9z m3542 -40 c3 -5 1
-10 -4 -10 -6 0 -11 5 -11 10 0 6 2 10 4 10 3 0 8 -4 11 -10z m5 -81 c-13 -24
-25 -25 -15 -1 4 9 7 28 7 42 l-1 25 10 -23 c6 -15 5 -30 -1 -43z m-2168 -21
c8 -28 8 -44 0 -60 -10 -21 -11 -20 -11 15 -1 21 -8 54 -16 74 -8 19 -15 38
-15 42 1 15 32 -37 42 -71z m2158 -12 c0 -3 -4 -8 -10 -11 -5 -3 -10 -1 -10 4
0 6 5 11 10 11 6 0 10 -2 10 -4z m-3874 -22 c-1 -7 -10 -22 -21 -34 -34 -37
-49 -18 -18 24 19 25 42 31 39 10z m3841 10 c-3 -3 -12 -4 -19 -1 -8 3 -5 6 6
6 11 1 17 -2 13 -5z m-27 -35 c0 -5 -7 -9 -15 -9 -15 0 -20 12 -9 23 8 8 24
-1 24 -14z m86 5 c-9 -8 -16 -20 -16 -25 0 -5 -4 -9 -10 -9 -17 0 -11 38 8 43
31 8 34 7 18 -9z m-3831 -3 c3 -5 1 -12 -5 -16 -5 -3 -10 -1 -10 5 0 7 -5 6
-14 -2 -8 -7 -11 -17 -8 -22 3 -5 0 -6 -6 -2 -6 3 -15 -2 -21 -11 -6 -11 -11
-13 -11 -5 0 13 48 61 62 62 4 0 9 -4 13 -9z m-137 -75 c-2 -1 -12 -8 -22 -16
-18 -14 -18 -14 -6 7 8 12 18 19 23 16 4 -3 7 -6 5 -7z m88 -1 c-8 -8 -19 -15
-24 -15 -5 0 -7 -12 -5 -27 4 -22 2 -25 -6 -13 -17 24 -13 44 12 56 32 17 41
16 23 -1z m-81 -41 c-9 -9 -18 -14 -21 -11 -9 9 6 27 22 27 13 0 13 -2 -1 -16z
m3055 -696 c0 -5 -2 -8 -5 -8 -66 0 -69 1 -55 10 17 11 61 9 60 -2z m-737 -55
c-7 -2 -19 -2 -25 0 -7 3 -2 5 12 5 14 0 19 -2 13 -5z m387 -3 c-8 -5 -22 -10
-30 -10 -13 0 -13 1 0 10 8 5 22 10 30 10 13 0 13 -1 0 -10z m-52 -40 c1 -24
15 -71 34 -113 27 -58 33 -84 33 -137 0 -70 10 -86 46 -75 15 5 19 4 15 -4 -4
-6 -22 -11 -39 -11 -24 0 -28 -3 -17 -10 20 -13 2 -30 -40 -36 -30 -5 -31 -4
-25 18 10 33 24 46 34 30 12 -20 22 96 12 138 -5 19 -22 64 -39 100 -35 76
-48 140 -28 140 9 0 14 -14 14 -40z m-1133 20 c3 -5 -3 -10 -15 -10 -12 0 -18
5 -15 10 3 6 10 10 15 10 5 0 12 -4 15 -10z m-776 -94 c-8 -8 -13 -8 -16 2 -3
6 -9 12 -14 12 -6 0 -7 -5 -3 -11 4 -7 -1 -10 -12 -7 -13 2 -20 13 -22 34 -3
28 -1 31 21 27 14 -3 28 1 33 8 5 9 11 3 17 -20 6 -23 5 -37 -4 -45z m791 55
c0 -11 6 -22 13 -24 9 -4 9 -8 -3 -16 -18 -12 -33 -4 -26 15 3 8 -1 14 -9 14
-8 0 -15 7 -15 15 0 8 9 15 20 15 13 0 20 -7 20 -19z m-750 -216 c0 -14 0 -28
1 -32 0 -5 -7 -10 -17 -11 -10 -3 -14 0 -10 7 10 15 -17 14 -32 -1 -9 -9 -12
-6 -12 14 0 22 4 25 28 22 15 -2 21 -1 14 2 -15 7 -6 24 14 24 8 0 14 -10 14
-25z m93 -132 c-13 -2 -33 -2 -45 0 -13 2 -3 4 22 4 25 0 35 -2 23 -4z m2219
-585 c33 1 57 -29 50 -63 -3 -16 -11 -25 -23 -25 -11 0 -22 -7 -25 -15 -14
-36 -51 -6 -73 57 -15 45 -7 62 23 53 11 -4 33 -7 48 -7z"/>
<path d="M2360 3359 c0 -5 5 -7 10 -4 6 3 10 8 10 11 0 2 -4 4 -10 4 -5 0 -10
-5 -10 -11z"/>
<path d="M2326 3165 c4 -8 15 -15 25 -15 10 0 19 7 19 15 0 9 -9 15 -25 15
-18 0 -23 -4 -19 -15z"/>
<path d="M2625 3171 l-70 -6 1 -255 c0 -140 1 -419 2 -619 l2 -364 88 6 c48 3
95 8 104 12 20 8 20 16 -4 265 -6 69 -13 145 -14 170 0 25 -4 52 -8 62 -4 9
-3 33 3 55 9 29 7 64 -6 151 -15 101 -15 132 -4 270 13 160 8 263 -13 260 -6
-1 -42 -4 -81 -7z"/>
<path d="M2415 3110 c3 -5 11 -10 16 -10 6 0 7 5 4 10 -3 6 -11 10 -16 10 -6
0 -7 -4 -4 -10z"/>
<path d="M2365 3030 c17 -19 17 -20 -9 -29 -14 -6 -26 -13 -26 -17 0 -7 62 6
73 15 9 9 -26 51 -43 51 -9 0 -7 -6 5 -20z"/>
<path d="M3560 2761 c0 -6 4 -13 10 -16 6 -3 7 1 4 9 -7 18 -14 21 -14 7z"/>
<path d="M807 3353 c-12 -11 -8 -23 8 -23 8 0 15 7 15 15 0 16 -12 20 -23 8z"/>
<path d="M1111 3236 l-53 -9 5 -59 c3 -33 8 -63 12 -66 9 -9 332 -9 341 0 4 4
7 36 8 70 l1 63 -130 5 c-71 3 -154 1 -184 -4z"/>
<path d="M4696 3215 c4 -8 1 -15 -6 -15 -6 0 -8 -4 -5 -10 12 -20 35 -10 35
15 0 15 -6 25 -15 25 -9 0 -12 -6 -9 -15z"/>
<path d="M2440 4730 c0 -5 5 -10 11 -10 5 0 7 5 4 10 -3 6 -8 10 -11 10 -2 0
-4 -4 -4 -10z"/>
<path d="M5030 4666 c-32 -23 -49 -45 -61 -78 l-16 -45 35 -28 c45 -37 75 -39
103 -9 16 17 18 24 8 24 -11 1 -11 3 2 13 24 18 25 125 1 143 -22 17 -20 18
-72 -20z m70 -96 c0 -5 -7 -13 -16 -18 -8 -5 -24 -21 -33 -36 -10 -15 -21 -24
-24 -19 -3 5 8 26 24 46 30 36 49 47 49 27z"/>
<path d="M2250 4649 c0 -18 6 -28 20 -32 25 -6 25 1 0 33 l-20 25 0 -26z"/>
<path d="M0 4535 c0 -110 1 -115 24 -130 14 -9 37 -15 53 -13 28 3 28 4 28 68
0 62 -2 69 -42 119 -24 30 -43 58 -43 62 0 5 -4 9 -10 9 -6 0 -10 -45 -10
-115z"/>
<path d="M3292 4580 c0 -14 2 -19 5 -12 2 6 2 18 0 25 -3 6 -5 1 -5 -13z"/>
<path d="M3282 4530 c0 -14 2 -19 5 -12 2 6 2 18 0 25 -3 6 -5 1 -5 -13z"/>
<path d="M4906 4513 c-4 -5 -31 -8 -58 -8 l-51 0 -42 -70 -41 -70 37 3 c42 4
109 -14 109 -30 0 -6 -9 -8 -22 -4 -56 17 -87 17 -148 1 -48 -12 -84 -15 -137
-10 -55 5 -78 3 -102 -9 -35 -19 -35 -21 -20 -100 9 -43 9 -63 0 -82 -10 -24
-8 -31 26 -73 101 -125 289 -291 331 -291 9 0 24 -5 32 -11 12 -9 11 -10 -5
-4 -14 4 -17 3 -10 -4 6 -6 21 -8 33 -4 23 6 23 7 -15 45 -21 22 -56 54 -78
71 -31 26 -38 28 -31 12 6 -18 5 -18 -16 3 -18 18 -23 34 -24 80 -1 31 4 60
10 64 6 4 9 31 8 61 -2 57 5 65 57 71 8 0 16 14 18 31 7 63 14 75 51 93 26 12
45 31 62 65 14 26 30 45 36 43 6 -2 16 6 23 20 6 15 19 24 33 24 13 0 30 5 38
10 13 8 12 10 -4 10 -14 0 -16 3 -7 13 21 26 -69 73 -93 50z"/>
<path d="M5106 4461 c-4 -7 -5 -15 -2 -18 9 -9 19 4 14 18 -4 11 -6 11 -12 0z"/>
<path d="M2615 4419 c6 -31 -6 -129 -21 -181 -5 -17 -4 -17 24 -1 23 13 32 30
46 81 l17 65 -36 36 -36 36 6 -36z"/>
<path d="M5095 4410 c-4 -6 -11 -8 -16 -4 -13 8 -89 -45 -89 -62 0 -8 5 -14
10 -14 6 0 10 -4 10 -9 0 -6 -12 -6 -30 1 -29 10 -33 8 -73 -37 -23 -27 -46
-55 -51 -64 -5 -9 -18 -23 -28 -31 -16 -13 -24 -30 -27 -62 -1 -4 -9 -9 -20
-13 -38 -12 -36 -159 4 -187 16 -12 21 -10 31 19 8 22 15 27 51 29 24 1 45 -2
49 -7 3 -5 11 -9 17 -9 8 0 8 3 -1 9 -10 6 -9 10 7 14 12 3 19 2 17 -2 -3 -4
4 -7 15 -7 10 0 19 1 19 1 0 1 -18 26 -40 55 -22 29 -40 61 -40 70 0 9 11 43
23 76 l24 59 -21 17 c-27 20 -15 34 16 17 23 -12 23 -12 4 10 -11 11 -16 24
-13 28 4 3 7 1 7 -6 0 -8 7 -11 15 -7 10 4 15 -1 15 -14 0 -17 3 -18 25 -8 13
6 22 15 19 20 -3 5 -1 7 5 6 6 -2 27 25 46 60 19 34 33 62 30 62 -2 0 -7 -5
-10 -10z m-55 -60 c0 -5 -2 -10 -4 -10 -3 0 -8 5 -11 10 -3 6 -1 10 4 10 6 0
11 -4 11 -10z"/>
<path d="M3242 4363 c-7 -22 -31 -62 -54 -88 -23 -26 -33 -43 -23 -37 11 5 28
19 37 29 22 24 60 111 56 125 -2 6 -9 -7 -16 -29z"/>
<path d="M4400 4368 c0 -38 12 -48 38 -34 l22 12 -30 22 -30 23 0 -23z"/>
<path d="M5093 4343 l-21 -38 24 -18 25 -18 -2 55 c-1 31 -3 56 -4 56 -1 0
-11 -17 -22 -37z"/>
<path d="M2692 4339 c-5 -13 -12 -37 -16 -53 -7 -28 -6 -29 26 -24 18 3 56 2
83 -2 49 -7 49 -7 25 9 -14 9 -44 33 -67 55 l-43 38 -8 -23z"/>
<path d="M5048 4273 c-6 -8 -22 -19 -35 -24 -27 -10 -30 -44 -7 -77 23 -34 8
-40 -18 -7 l-21 27 -19 -48 c-19 -47 -19 -48 2 -76 11 -15 32 -45 46 -66 14
-20 29 -36 34 -35 15 4 42 -118 35 -163 -5 -37 -3 -44 17 -58 12 -9 26 -16 30
-16 5 0 8 83 8 185 0 102 -3 184 -7 184 -19 -3 -33 2 -33 11 0 6 8 10 18 8 15
-3 17 7 20 67 2 68 2 70 -27 87 -27 15 -31 15 -43 1z m2 -153 c0 -5 -4 -10
-10 -10 -5 0 -10 5 -10 10 0 6 5 10 10 10 6 0 10 -4 10 -10z"/>
<path d="M2694 4232 c-32 -3 -44 -21 -44 -64 0 -23 104 -89 150 -95 50 -7 194
50 239 94 l33 33 -58 0 c-31 0 -94 6 -138 14 -105 19 -144 23 -182 18z"/>
<path d="M2260 4214 c-8 -4 -22 -12 -30 -19 -18 -15 -115 -13 -240 3 -144 20
-217 2 -267 -65 -52 -70 -58 -73 -154 -73 -78 0 -88 -2 -94 -19 -4 -13 4 -35
20 -60 14 -22 25 -55 25 -73 0 -41 36 -104 73 -132 24 -18 43 -21 117 -21 88
0 90 1 125 35 31 30 40 33 84 31 l49 -2 -3 68 c-1 37 -6 76 -10 86 -13 32 2
95 33 137 38 52 51 36 15 -16 -16 -23 -26 -51 -25 -69 1 -16 3 -55 5 -85 2
-30 4 -70 5 -87 l2 -33 60 0 c33 0 60 4 60 10 0 6 7 10 15 10 8 0 15 -4 15
-10 0 -5 17 -10 39 -10 l38 0 15 59 c8 33 11 58 7 55 -13 -8 -18 11 -8 26 8
11 12 12 16 3 7 -18 33 9 33 34 0 21 20 56 20 35 0 -8 7 -11 19 -7 15 5 18 1
13 -20 -4 -24 -22 -36 -22 -14 0 5 -5 7 -11 3 -8 -5 -6 -10 5 -16 11 -6 22 -6
30 1 7 6 38 13 70 17 62 8 66 12 85 86 14 59 8 73 -44 104 -43 25 -152 41
-185 28z m-220 -34 c0 -5 -5 -10 -11 -10 -5 0 -7 5 -4 10 3 6 8 10 11 10 2 0
4 -4 4 -10z m50 -21 c0 -5 -4 -8 -8 -5 -5 3 -9 -1 -9 -9 0 -8 6 -15 14 -15 7
0 13 6 13 14 0 9 10 13 25 12 19 -1 25 -7 25 -23 0 -12 -4 -25 -10 -28 -5 -3
-10 -1 -10 4 0 6 -8 10 -17 9 -49 -4 -63 2 -63 27 0 18 5 25 20 25 11 0 20 -5
20 -11z m325 1 c3 -5 -1 -10 -10 -10 -9 0 -29 -7 -45 -15 -16 -8 -31 -11 -34
-6 -3 5 11 16 32 24 45 19 49 20 57 7z m50 0 c3 -5 -1 -10 -9 -10 -9 0 -16 5
-16 10 0 6 4 10 9 10 6 0 13 -4 16 -10z m-265 -19 c0 -6 -4 -12 -10 -16 -5 -3
-7 -12 -3 -20 6 -16 2 -18 -20 -9 -21 8 -9 54 14 54 11 0 19 -4 19 -9z m39
-18 c-3 -34 1 -37 17 -15 18 27 34 20 34 -14 0 -18 -4 -23 -12 -17 -7 4 -20 8
-28 8 -8 1 -23 2 -32 3 -18 2 -25 32 -11 45 13 14 34 7 32 -10z m84 -30 c6
-32 3 -38 -12 -28 -13 8 -15 55 -2 55 5 0 11 -12 14 -27z m65 -9 c3 -23 -17
-37 -36 -25 -6 4 -9 17 -5 29 7 29 37 25 41 -4z m-274 -13 c9 -14 -3 -38 -19
-38 -9 0 -15 10 -15 24 0 23 23 32 34 14z m46 -21 c0 -11 5 -20 10 -20 6 0 10
7 10 15 0 8 5 15 10 15 6 0 10 -4 10 -10 0 -5 6 -7 14 -4 10 4 12 -2 9 -20 -5
-24 -23 -37 -23 -17 0 4 -11 7 -25 6 -14 -2 -25 1 -25 6 0 4 -7 6 -15 3 -18
-7 -19 0 -5 27 14 25 30 24 30 -1z m103 13 c-7 -2 -19 -2 -25 0 -7 3 -2 5 12
5 14 0 19 -2 13 -5z m12 -23 c3 -5 -1 -10 -9 -10 -9 0 -16 -4 -16 -10 0 -5 5
-10 10 -10 6 0 10 -4 10 -10 0 -16 -30 -12 -36 5 -13 32 24 63 41 35z m-185
-27 c0 -5 -23 -9 -51 -11 -33 -2 -48 1 -44 8 7 11 95 14 95 3z m-171 -119
c-12 -27 -24 -43 -26 -37 -5 14 36 97 44 89 3 -3 -5 -26 -18 -52z m268 33 c3
-3 3 -13 -1 -22 -8 -23 -80 -17 -84 7 -4 22 65 34 85 15z"/>
<path d="M2360 4079 c0 -5 5 -7 10 -4 6 3 10 8 10 11 0 2 -4 4 -10 4 -5 0 -10
-5 -10 -11z"/>
<path d="M2607 4190 c-9 -13 -14 -26 -12 -29 9 -8 38 26 33 40 -3 8 -10 5 -21
-11z"/>
<path d="M2516 4104 c-6 -24 -2 -43 8 -33 11 10 17 59 8 59 -5 0 -13 -12 -16
-26z"/>
<path d="M4975 3939 c-4 -12 -2 -24 4 -28 13 -8 -23 -51 -42 -51 -7 0 -1 9 13
19 24 19 24 20 6 40 -14 16 -23 18 -37 10 -11 -5 -19 -16 -19 -25 0 -8 -7 -17
-15 -20 -17 -7 -21 -54 -5 -54 12 0 14 -26 3 -33 -5 -2 -3 -2 4 -1 7 2 15 -6
18 -17 10 -31 65 -89 84 -89 23 0 43 -24 63 -75 26 -63 31 -110 13 -125 -8 -7
-15 -18 -15 -26 0 -7 -12 -25 -26 -41 -16 -18 -23 -34 -20 -48 3 -11 6 -30 6
-42 0 -32 26 -28 33 5 3 15 21 50 40 79 33 51 34 55 36 167 l2 115 -40 21 -41
20 0 77 c0 59 -5 83 -21 109 -24 39 -35 42 -44 13z"/>
<path d="M4917 3684 c-6 -6 29 -71 50 -92 7 -7 14 -19 14 -25 1 -7 3 -19 4
-27 1 -8 3 -24 4 -35 1 -17 3 -18 11 -5 13 19 13 67 0 75 -5 3 -7 12 -4 19 5
14 -70 99 -79 90z"/>
<path d="M5107 3414 c-3 -3 -3 -12 0 -20 3 -8 -2 -16 -10 -20 -17 -6 -41 -64
-27 -64 5 0 11 10 13 23 3 12 5 0 6 -28 3 -87 5 -105 13 -105 4 0 8 -5 8 -11
0 -5 -4 -7 -10 -4 -15 9 -12 -1 4 -14 13 -11 15 6 15 118 0 72 -1 131 -3 131
-1 0 -5 -3 -9 -6z"/>
<path d="M4919 3272 c-79 -53 -109 -93 -109 -149 0 -22 3 -25 27 -20 19 4 37
-3 62 -21 30 -24 42 -27 103 -25 53 2 70 -1 75 -12 9 -24 43 -18 43 7 0 23
-117 140 -123 123 -3 -5 -3 3 -1 18 2 17 0 26 -6 22 -6 -3 -10 5 -10 19 0 57
-17 68 -61 38z m106 -132 c3 -6 -1 -7 -9 -4 -18 7 -21 14 -7 14 6 0 13 -4 16
-10z"/>
<path d="M5016 3258 c9 -48 34 -87 74 -116 l35 -26 -34 34 c-38 39 -51 68 -51
111 0 19 -5 29 -15 29 -11 0 -13 -8 -9 -32z"/>
<path d="M401 3106 c-8 -10 -9 -16 -1 -21 5 -3 13 1 16 10 9 22 -1 29 -15 11z"/>
<path d="M300 3045 c-25 -14 -73 -37 -108 -51 -69 -30 -96 -63 -105 -129 -2
-22 -23 -72 -46 -111 l-41 -71 0 -117 c0 -111 4 -126 26 -108 5 4 1 -1 -9 -10
-13 -13 -17 -29 -15 -60 l3 -43 40 36 c22 19 61 47 86 62 47 27 61 49 94 155
14 45 27 61 80 104 35 27 66 60 69 72 3 11 6 51 6 87 0 37 7 86 15 109 35 99
1 126 -95 75z m-140 -555 c0 -5 -10 -15 -22 -21 -13 -7 -26 -17 -30 -22 -3 -6
-16 -11 -28 -12 -22 -2 -22 -2 1 16 13 10 32 21 42 25 9 3 17 10 17 15 0 5 5
9 10 9 6 0 10 -4 10 -10z"/>
<path d="M4770 2896 c0 -2 8 -10 18 -17 15 -13 16 -12 3 4 -13 16 -21 21 -21
13z"/>
<path d="M1 2770 c0 -40 2 -42 11 -22 8 16 8 28 0 45 -9 19 -11 17 -11 -23z"/>
<path d="M5101 2654 c0 -11 3 -14 6 -6 3 7 2 16 -1 19 -3 4 -6 -2 -5 -13z"/>
<path d="M5110 2499 c0 -11 -4 -29 -10 -39 -14 -26 -53 -210 -46 -217 3 -3 19
0 36 7 l30 12 0 129 c0 71 -2 129 -5 129 -3 0 -5 -9 -5 -21z"/>
<path d="M5030 2481 c-37 -20 -138 -84 -155 -99 -5 -4 -14 -10 -20 -12 -5 -2
-42 -24 -82 -49 -166 -105 -198 -125 -205 -123 -5 1 -8 -2 -8 -7 0 -5 -9 -13
-20 -16 -11 -3 -20 -11 -20 -17 0 -19 69 -76 99 -83 16 -3 37 -17 45 -31 9
-13 21 -24 27 -24 6 0 36 25 68 55 39 37 90 71 152 101 52 26 96 48 98 50 7 6
48 209 46 231 -1 12 2 20 7 17 4 -3 8 2 8 10 0 20 2 20 -40 -3z"/>
<path d="M178 2447 c-14 -12 -46 -34 -70 -50 -103 -65 -132 -95 -62 -64 58 25
124 76 149 114 19 28 17 28 -17 0z"/>
<path d="M5073 2219 c-24 -10 -43 -22 -43 -26 -1 -76 -69 -483 -91 -540 -11
-31 -11 -33 1 -33 14 0 69 62 97 109 15 25 19 42 13 51 -17 26 -11 46 16 59
14 6 30 9 35 5 17 -10 19 21 17 207 l-3 186 -42 -18z"/>
<path d="M4910 2152 c-103 -51 -174 -123 -226 -232 -57 -119 -60 -130 -35
-130 12 0 21 -7 21 -15 0 -8 6 -15 13 -15 13 0 37 -45 37 -71 0 -9 10 -28 21
-43 27 -35 63 -32 67 5 3 22 7 25 29 21 14 -3 28 -13 30 -22 8 -29 39 -12 51
29 18 60 41 187 57 321 9 69 18 140 21 158 4 17 2 32 -2 31 -5 0 -43 -17 -84
-37z"/>
<path d="M10 2065 c-15 -18 -14 -20 23 -29 26 -6 27 -5 17 13 -15 29 -26 33
-40 16z"/>
<path d="M1 1786 c0 -210 1 -226 17 -226 10 0 27 -7 38 -15 23 -17 19 -18 -24
-6 -30 9 -47 -1 -19 -12 9 -4 9 -6 0 -6 -10 -1 -13 -28 -13 -102 0 -64 4 -98
10 -94 7 4 7 -3 0 -20 -15 -40 -13 -505 2 -505 9 0 9 -3 0 -12 -9 -9 -12 -112
-12 -400 l0 -388 119 0 c81 0 121 4 123 11 3 9 18 8 56 -1 28 -8 54 -11 57 -8
3 3 8 21 12 40 4 31 0 40 -30 71 -73 73 -138 250 -122 330 4 18 18 68 31 113
29 97 30 128 4 164 -19 27 -127 96 -142 92 -5 -1 -8 5 -8 13 0 9 -7 26 -15 39
-24 36 -29 106 -12 172 8 32 19 97 23 144 8 98 8 97 21 130 6 14 25 66 43 115
17 50 56 140 86 201 66 134 71 162 29 178 -52 19 -74 39 -132 116 -31 41 -57
76 -57 77 -1 1 -20 5 -43 9 l-42 6 0 -226z m79 184 c0 -5 -5 -10 -11 -10 -5 0
-7 5 -4 10 3 6 8 10 11 10 2 0 4 -4 4 -10z m-14 -664 c8 -8 14 -18 14 -22 0
-5 -5 -3 -11 3 -6 6 -18 9 -25 6 -10 -4 -12 0 -8 11 8 20 12 20 30 2z m-16
-506 c0 -5 -4 -10 -10 -10 -5 0 -10 5 -10 10 0 6 5 10 10 10 6 0 10 -4 10 -10z"/>
<path d="M174 1924 c38 -53 97 -97 110 -84 13 13 29 13 21 1 -3 -5 -1 -12 5
-16 14 -8 11 11 -8 70 l-17 50 -50 1 c-27 0 -59 5 -69 9 -17 7 -15 2 8 -31z"/>
<path d="M5077 1739 c-21 -34 -37 -62 -35 -64 2 -2 20 2 41 8 37 12 37 12 37
64 0 29 -1 53 -2 53 -2 -1 -20 -28 -41 -61z"/>
<path d="M316 1721 c-10 -33 -29 -74 -42 -92 -13 -18 -39 -74 -58 -123 -122
-322 -121 -314 -31 -331 47 -8 60 -17 91 -67 28 -45 62 -50 96 -16 12 12 23
17 25 11 2 -5 14 -8 28 -6 23 5 23 6 7 39 -8 19 -20 34 -24 34 -5 0 -6 5 -3
10 4 6 0 22 -9 35 -9 13 -25 47 -36 76 -28 69 -19 104 46 201 29 43 50 78 47
78 -4 0 -2 5 5 12 17 17 15 73 -3 108 -14 27 -93 90 -112 90 -5 0 -17 -27 -27
-59z"/>
<path d="M4689 1627 c-8 -7 -18 -20 -22 -29 -4 -13 -1 -16 13 -13 11 2 24 -3
28 -12 7 -11 11 -12 16 -4 4 6 2 11 -4 11 -6 0 -9 4 -6 9 4 5 3 18 -1 29 -7
17 -11 18 -24 9z"/>
<path d="M4903 1452 c-27 -17 -56 -109 -69 -217 -7 -60 -11 -111 -10 -112 1
-2 18 11 37 27 23 20 45 29 69 30 32 0 37 4 58 49 28 61 28 66 -3 93 -14 12
-25 27 -25 34 0 7 -9 19 -19 26 -11 8 -21 28 -23 46 -2 22 -7 29 -15 24z m42
-152 c3 -5 1 -10 -4 -10 -6 0 -11 5 -11 10 0 6 2 10 4 10 3 0 8 -4 11 -10z
m-25 -9 c0 -5 -9 -13 -20 -16 -11 -3 -20 -11 -20 -16 0 -5 -4 -9 -10 -9 -19 0
-10 27 13 38 28 14 37 14 37 3z"/>
<path d="M4186 1375 c-3 -8 -22 -22 -42 -33 l-37 -19 53 -2 c63 -2 72 -6 69
-34 -3 -39 1 -45 20 -40 14 4 20 -3 26 -29 7 -32 7 -33 15 -8 16 50 11 96 -12
116 -55 47 -86 64 -92 49z"/>
<path d="M2062 1358 c-19 -11 -38 -32 -43 -44 -11 -30 5 -74 26 -74 8 0 15 -8
15 -17 0 -14 4 -12 17 7 10 14 17 29 15 33 -1 5 2 6 7 2 11 -6 91 31 91 43 0
16 -60 72 -77 72 -10 0 -33 -10 -51 -22z"/>
<path d="M3835 1360 c3 -5 8 -10 11 -10 2 0 4 5 4 10 0 6 -5 10 -11 10 -5 0
-7 -4 -4 -10z"/>
<path d="M2500 1340 c0 -5 5 -10 11 -10 5 0 7 5 4 10 -3 6 -8 10 -11 10 -2 0
-4 -4 -4 -10z"/>
<path d="M2960 1293 c30 -55 64 -102 73 -103 16 0 5 30 -30 84 -43 64 -76 79
-43 19z"/>
<path d="M1927 1278 c-56 -39 -61 -67 -19 -117 l28 -33 28 23 c57 48 68 61 58
68 -5 3 -15 25 -21 49 -7 23 -15 42 -19 42 -4 0 -29 -15 -55 -32z"/>
<path d="M3830 1270 c0 -5 5 -10 10 -10 6 0 10 5 10 10 0 6 -4 10 -10 10 -5 0
-10 -4 -10 -10z"/>
<path d="M4033 1252 c-52 -20 -56 -33 -9 -25 19 3 47 1 63 -4 26 -10 28 -8 30
18 3 34 -16 36 -84 11z"/>
<path d="M3360 1255 c0 -3 9 -22 20 -42 11 -21 20 -32 20 -25 0 15 -28 72 -35
72 -3 0 -5 -2 -5 -5z"/>
<path d="M3160 1232 c0 -10 7 -27 15 -38 8 -10 15 -25 15 -33 0 -11 -3 -11
-16 0 -14 12 -14 10 -2 -22 18 -44 33 -43 56 3 l19 36 -44 37 c-36 30 -43 33
-43 17z"/>
<path d="M2293 1228 c1 -7 -4 -12 -11 -10 -17 3 49 -116 102 -186 64 -84 75
-109 66 -143 -9 -32 -7 -57 8 -86 5 -10 15 -43 21 -74 12 -55 63 -135 81 -124
11 7 0 45 -13 45 -8 0 -8 3 0 11 14 14 68 8 68 -8 0 -6 3 -15 7 -19 10 -9 -10
-34 -28 -34 -31 0 -22 -25 26 -71 28 -27 63 -52 77 -55 18 -5 62 5 139 31 115
39 153 42 280 19 30 -6 32 -4 38 30 9 48 25 46 19 -3 l-5 -38 41 -7 c23 -3 46
-4 51 -1 5 3 13 29 19 58 8 40 7 64 -4 102 -7 28 -14 40 -14 29 -1 -28 -25
-47 -50 -39 -25 8 -34 31 -20 57 9 16 17 19 45 13 33 -6 34 -5 34 28 0 37 42
168 65 203 8 12 17 33 19 46 3 12 10 41 15 63 16 62 13 73 -9 30 -11 -22 -20
-45 -20 -52 0 -7 -4 -13 -10 -13 -5 0 -10 -6 -10 -13 0 -20 -90 -100 -143
-126 -28 -14 -53 -35 -58 -48 -7 -19 -13 -22 -38 -17 -23 5 -41 -1 -77 -24
-25 -17 -66 -34 -91 -38 -61 -9 -155 0 -193 19 -17 9 -55 21 -85 27 -52 11
-76 30 -37 30 12 0 13 3 5 8 -7 4 -19 24 -28 45 -12 30 -20 37 -43 37 l-27 -1
22 -18 c23 -19 52 -78 33 -66 -5 3 -19 1 -30 -5 -16 -9 -22 -8 -27 6 -7 18 15
36 32 27 5 -3 -2 7 -17 24 -34 35 -38 67 -8 58 27 -9 25 -1 -11 52 -18 27 -27
49 -21 55 15 15 36 -1 54 -40 l18 -37 -6 35 c-9 63 -11 75 -19 107 -8 35 -65
101 -82 96 -6 -2 -14 1 -18 6 -9 16 -136 14 -132 -1z m622 -508 c3 -5 1 -10
-4 -10 -6 0 -11 5 -11 10 0 6 2 10 4 10 3 0 8 -4 11 -10z m115 -11 c-7 -11 -9
-27 -6 -35 4 -10 -2 -14 -18 -14 -19 0 -23 4 -19 19 3 10 0 22 -6 25 -22 14
-10 26 24 26 33 0 35 -2 25 -21z m130 17 c0 -3 -4 -8 -10 -11 -5 -3 -10 -1
-10 4 0 6 5 11 10 11 6 0 10 -2 10 -4z m-337 -45 c20 -33 15 -41 -28 -41 -32
0 -32 0 -21 35 13 42 26 44 49 6z m372 -56 c0 -16 -6 -19 -25 -17 -31 5 -32 5
-24 26 9 24 49 17 49 -9z"/>
<path d="M2210 1200 c-21 -13 -10 -19 23 -13 21 4 25 8 15 14 -16 11 -20 11
-38 -1z"/>
<path d="M1807 1151 c-24 -43 -25 -50 -12 -61 8 -7 15 -10 15 -7 0 3 12 -5 27
-19 24 -23 27 -23 44 -8 32 29 32 50 -3 98 -17 25 -35 46 -38 46 -4 0 -19 -22
-33 -49z m20 -33 c-3 -8 -6 -5 -6 6 -1 11 2 17 5 13 3 -3 4 -12 1 -19z"/>
<path d="M3804 1193 c10 -11 37 -12 30 -2 -3 5 -12 9 -21 9 -9 0 -13 -3 -9 -7z"/>
<path d="M3910 1190 c0 -5 5 -10 11 -10 5 0 7 5 4 10 -3 6 -8 10 -11 10 -2 0
-4 -4 -4 -10z"/>
<path d="M2218 1157 c-23 -8 -46 -25 -60 -47 -19 -28 -29 -34 -51 -32 -23 3
-27 0 -27 -23 0 -14 -7 -28 -15 -31 -12 -5 -10 -10 10 -26 14 -11 33 -17 41
-14 29 11 159 36 187 36 16 0 37 -5 48 -10 26 -15 24 -8 -19 58 -20 31 -42 66
-48 76 -14 25 -21 27 -66 13z"/>
<path d="M122 1148 c-7 -7 -12 -27 -12 -46 0 -18 -5 -43 -11 -54 -6 -12 -12
-49 -12 -82 -1 -77 28 -125 98 -166 58 -33 90 -64 103 -100 9 -27 9 -70 0 -86
-17 -28 -26 -88 -17 -112 34 -89 164 -149 292 -137 90 9 88 7 67 62 -15 40
-22 48 -41 45 -12 -1 -26 3 -31 10 -11 19 -10 28 5 28 34 1 38 15 22 76 -8 33
-19 103 -24 155 -9 88 -38 194 -82 296 -21 49 -36 53 -111 26 -43 -15 -48 -15
-72 0 -14 10 -33 30 -43 45 -9 15 -23 33 -32 40 -19 15 -83 16 -99 0z m208
-528 c0 -5 -4 -10 -10 -10 -5 0 -10 5 -10 10 0 6 5 10 10 10 6 0 10 -4 10 -10z
m270 -190 c0 -5 -4 -10 -10 -10 -5 0 -10 5 -10 10 0 6 5 10 10 10 6 0 10 -4
10 -10z"/>
<path d="M3990 1150 c-24 -8 -23 -8 8 -9 20 -1 31 3 27 9 -3 6 -7 10 -8 9 -1
-1 -13 -5 -27 -9z"/>
<path d="M4134 1152 c-12 -1 -32 -14 -45 -28 -12 -13 -27 -24 -32 -24 -5 0
-16 -8 -24 -17 -10 -13 -16 -15 -19 -5 -11 25 -42 13 -46 -17 -4 -26 -2 -29
13 -20 11 5 20 5 23 0 4 -5 0 -12 -6 -15 -10 -4 -10 -7 -1 -12 8 -4 8 -12 -3
-32 -8 -15 -14 -33 -14 -39 0 -7 -9 -18 -20 -25 -11 -7 -20 -18 -20 -25 0 -18
8 -16 37 7 30 23 110 27 158 6 25 -10 37 -10 80 7 56 21 175 79 175 85 0 9
-80 140 -92 149 -16 13 -118 12 -118 0 0 -6 -5 -6 -12 0 -7 5 -23 7 -34 5z"/>
<path d="M4630 1156 c0 -2 7 -6 15 -10 8 -3 15 -1 15 4 0 6 -7 10 -15 10 -8 0
-15 -2 -15 -4z"/>
<path d="M3025 1076 c-19 -39 -22 -41 -62 -39 l-43 2 17 -27 c10 -15 22 -30
28 -34 12 -9 55 30 55 50 0 8 7 20 16 26 9 7 14 22 12 37 -3 24 -4 22 -23 -15z"/>
<path d="M4363 1082 c48 -82 51 -85 99 -78 125 19 141 19 180 -7 l37 -25 10
30 c14 39 14 75 1 83 -5 3 -31 -1 -58 -9 -69 -20 -177 -9 -244 25 -20 10 -39
19 -42 19 -3 0 5 -17 17 -38z"/>
<path d="M1455 1081 c-16 -11 -77 -32 -134 -47 -91 -24 -110 -26 -155 -17 -53
11 -82 2 -69 -21 3 -6 3 -8 -2 -4 -4 4 -22 -4 -40 -17 -17 -14 -43 -25 -56
-25 -57 0 -66 -57 -17 -107 42 -44 58 -93 58 -185 0 -62 5 -86 26 -129 22 -43
25 -56 15 -71 -10 -15 -7 -25 16 -56 41 -56 41 -56 58 -42 13 11 15 9 15 -14
0 -21 5 -26 26 -26 16 0 24 -5 21 -12 -2 -7 -11 -12 -19 -10 -9 1 -24 -12 -35
-30 l-19 -33 40 3 c85 6 84 6 73 62 -11 55 2 104 31 115 10 4 57 11 106 15 49
5 93 13 99 19 8 8 7 11 -1 11 -7 0 -12 5 -12 10 0 7 6 7 19 1 23 -13 139 5
159 24 17 16 42 133 35 167 -5 26 6 41 61 86 10 8 16 28 16 55 0 31 -3 38 -10
27 -6 -10 -8 -2 -4 25 4 31 3 37 -5 25 -9 -12 -10 -9 -5 14 5 20 3 27 -4 22
-6 -3 -13 -2 -17 4 -3 5 -2 10 3 10 6 0 8 8 6 18 -2 9 -6 32 -7 51 l-2 34 -90
23 c-50 12 -92 21 -94 19 -2 -2 -10 2 -18 10 -19 19 -32 19 -68 -4z m55 -1 c8
-5 11 -10 5 -10 -5 0 -17 5 -25 10 -8 5 -10 10 -5 10 6 0 17 -5 25 -10z m-10
-60 c0 -5 -6 -10 -14 -10 -8 0 -23 -3 -33 -6 -16 -6 -16 -5 2 9 23 19 45 22
45 7z m57 -10 c1 -11 -4 -20 -13 -20 -17 0 -19 26 -1 33 6 3 12 6 12 6 1 1 1
-8 2 -19z m-207 0 c0 -5 -2 -10 -4 -10 -3 0 -8 5 -11 10 -3 6 -1 10 4 10 6 0
11 -4 11 -10z m95 -30 c3 -5 1 -10 -4 -10 -6 0 -11 5 -11 10 0 6 2 10 4 10 3
0 8 -4 11 -10z m-315 -10 c0 -5 -7 -10 -16 -10 -8 0 -12 5 -9 10 3 6 10 10 16
10 5 0 9 -4 9 -10z m345 0 c3 -5 1 -10 -4 -10 -6 0 -11 5 -11 10 0 6 2 10 4
10 3 0 8 -4 11 -10z m35 0 c0 -5 -2 -10 -4 -10 -3 0 -8 5 -11 10 -3 6 -1 10 4
10 6 0 11 -4 11 -10z m30 -10 c0 -5 -2 -10 -4 -10 -3 0 -8 5 -11 10 -3 6 -1
10 4 10 6 0 11 -4 11 -10z m28 -30 c1 -32 -12 -48 -23 -29 -6 8 12 59 20 59 1
0 2 -13 3 -30z m-68 6 c0 -8 -5 -18 -10 -21 -17 -11 -40 3 -34 20 8 19 44 20
44 1z m-330 -13 c0 -13 3 -14 12 -5 19 19 26 14 20 -14 -3 -18 -9 -23 -21 -18
-9 3 -22 7 -29 7 -7 0 -10 7 -7 14 3 8 5 19 5 24 0 5 5 9 10 9 6 0 10 -8 10
-17z m-24 -67 c21 -38 23 -48 11 -43 -14 5 -15 3 -5 -19 13 -27 12 -29 -20
-38 -15 -5 -24 -3 -28 8 -3 9 -12 16 -20 16 -8 0 -14 2 -14 4 0 2 -3 12 -7 22
-4 12 -3 15 5 10 23 -14 32 4 17 34 -8 16 -15 40 -15 54 0 22 2 23 25 13 13
-7 36 -34 51 -61z m134 45 c0 -3 -5 -13 -10 -21 -9 -13 -11 -13 -20 0 -6 10
-10 11 -10 3 0 -7 -7 -13 -15 -13 -15 0 -21 21 -9 33 8 7 64 6 64 -2z m47 -12
c36 -15 63 -18 69 -7 11 17 20 7 22 -23 2 -27 0 -30 -15 -24 -10 4 -26 7 -35
7 -10 0 -18 3 -18 7 0 4 -10 7 -22 7 -17 -1 -22 4 -20 19 3 20 2 20 -13 1 -12
-15 -15 -16 -15 -5 0 14 8 29 16 29 1 0 15 -5 31 -11z m-103 -57 c5 -9 -33
-47 -40 -40 -2 2 -1 14 3 26 5 22 27 30 37 14z m31 -33 c0 -7 -8 -15 -17 -17
-18 -3 -25 18 -11 32 10 10 28 1 28 -15z m89 -14 c-6 -23 -10 -26 -33 -20 -14
4 -32 8 -38 8 -15 0 -16 7 -4 25 11 18 24 17 31 -3 5 -14 8 -14 25 3 25 24 28
22 19 -13z m-200 -91 c9 -24 7 -34 -8 -34 -14 0 -28 34 -18 44 10 10 20 6 26
-10z m346 -34 c8 -5 12 -12 9 -15 -8 -8 -39 5 -39 16 0 11 11 11 30 -1z m-375
-130 c-3 -5 -10 -10 -16 -10 -5 0 -9 5 -9 10 0 6 7 10 16 10 8 0 12 -4 9 -10z
m125 -1 c0 -7 -16 -9 -45 -6 -64 6 -68 17 -7 17 31 0 52 -4 52 -11z m50 1 c0
-5 -4 -10 -10 -10 -5 0 -10 5 -10 10 0 6 5 10 10 10 6 0 10 -4 10 -10z m98
-11 c18 -6 30 -14 27 -19 -6 -10 -105 10 -105 21 0 12 41 11 78 -2z m72 -35
c0 -8 -4 -12 -10 -9 -5 3 -10 10 -10 16 0 5 5 9 10 9 6 0 10 -7 10 -16z m-340
-24 c0 -5 -5 -10 -11 -10 -5 0 -7 5 -4 10 3 6 8 10 11 10 2 0 4 -4 4 -10z m65
-20 c3 -5 1 -10 -4 -10 -6 0 -11 5 -11 10 0 6 2 10 4 10 3 0 8 -4 11 -10z m65
-30 c0 -5 -2 -10 -4 -10 -3 0 -8 5 -11 10 -3 6 -1 10 4 10 6 0 11 -4 11 -10z"/>
<path d="M4718 1046 c-4 -47 -14 -68 -77 -162 l-73 -108 26 -9 c14 -5 24 -13
21 -17 -3 -5 -16 -5 -30 0 -27 10 -39 -3 -55 -61 -13 -46 7 -62 88 -69 48 -5
79 -14 101 -29 37 -27 37 -25 10 56 -13 38 -27 63 -36 63 -8 0 -11 5 -8 10 4
6 11 7 17 4 8 -5 9 1 5 17 -4 13 -7 28 -7 32 0 5 -4 6 -9 3 -5 -3 -12 2 -16
11 -3 10 -2 19 4 21 19 6 32 67 21 96 -8 23 -6 30 15 48 22 19 65 111 65 138
0 6 -13 10 -29 10 -27 0 -29 -2 -33 -54z m-58 -306 c0 -5 -4 -10 -10 -10 -5 0
-10 5 -10 10 0 6 5 10 10 10 6 0 10 -4 10 -10z"/>
<path d="M4805 1067 c-19 -46 -19 -57 0 -57 9 0 15 9 15 23 0 13 5 28 12 35 9
9 9 15 0 24 -9 9 -15 3 -27 -25z"/>
<path d="M4896 1074 c-11 -7 -17 -16 -15 -19 3 -3 14 2 25 9 10 8 17 17 14 19
-3 3 -14 -1 -24 -9z"/>
<path d="M1764 1058 c-11 -35 -6 -111 11 -157 17 -50 20 -133 4 -162 -5 -11
-21 -24 -33 -29 -25 -9 -22 3 -46 -223 -6 -54 -15 -108 -20 -121 -7 -19 -4
-28 13 -44 25 -23 127 -76 133 -69 10 9 7 150 -5 272 -12 116 -12 134 3 169 9
21 16 50 15 65 0 26 0 26 -11 4 -6 -13 -15 -23 -19 -23 -4 0 -2 12 6 27 8 16
11 33 6 42 -5 9 -11 39 -15 66 -6 46 -5 48 7 26 8 -13 12 -32 9 -43 -2 -10 1
-18 7 -18 6 0 11 18 11 44 0 24 7 57 15 72 21 41 19 63 -10 76 -14 6 -25 14
-25 18 0 4 -11 12 -24 18 -22 10 -26 8 -32 -10z m40 -73 c-4 -8 -8 -15 -10
-15 -2 0 -4 7 -4 15 0 8 4 15 10 15 5 0 7 -7 4 -15z"/>
<path d="M3157 1066 c-4 -10 -1 -13 9 -9 7 3 14 9 14 14 0 14 -17 10 -23 -5z"/>
<path d="M506 1046 c3 -9 10 -16 16 -16 5 0 8 -6 6 -12 -1 -7 8 -42 20 -78 31
-91 51 -194 45 -231 -3 -19 -1 -29 5 -25 6 3 13 -1 16 -10 3 -8 2 -12 -4 -9
-14 9 -12 -24 5 -83 9 -29 15 -54 15 -57 0 -3 6 -18 14 -34 9 -16 13 -31 11
-33 -3 -3 0 -19 6 -36 9 -27 16 -32 42 -32 18 -1 50 -7 72 -15 28 -10 58 -13
99 -9 92 10 129 26 166 67 30 34 32 40 20 62 -11 21 -18 23 -51 19 -25 -4 -39
-2 -39 5 0 6 15 11 34 11 34 0 35 0 25 32 -5 18 -9 65 -9 104 0 83 -19 138
-61 174 -19 17 -29 36 -31 60 -4 48 -32 60 -146 60 -116 0 -186 19 -241 66
-22 20 -38 28 -35 20z m404 -118 c0 -7 3 -23 6 -35 5 -17 2 -23 -10 -23 -10 0
-14 5 -11 10 3 6 -3 10 -14 10 -12 0 -21 -5 -21 -11 0 -5 -4 -7 -10 -4 -23 14
-9 35 23 36 17 0 26 3 20 6 -18 7 -16 23 2 23 8 0 15 -6 15 -12z m-10 -92 c0
-3 -4 -8 -10 -11 -5 -3 -10 -1 -10 4 0 6 5 11 10 11 6 0 10 -2 10 -4z m-220
-16 c-16 -10 -8 -14 23 -11 10 2 17 -5 17 -16 0 -13 3 -14 8 -5 5 6 20 11 35
10 19 -2 27 -8 28 -23 0 -19 1 -19 11 3 6 12 15 22 20 22 5 0 7 -4 4 -9 -4 -5
0 -11 6 -14 10 -3 10 -7 1 -17 -8 -9 -22 -9 -60 0 -26 6 -56 11 -65 11 -10 0
-20 4 -23 9 -3 4 -14 6 -25 3 -12 -3 -20 0 -20 6 0 7 5 9 11 5 8 -4 9 0 4 15
-5 17 -2 21 17 21 18 0 20 -2 8 -10z m175 -9 c3 -5 1 -12 -5 -16 -5 -3 -10 1
-10 9 0 18 6 21 15 7z m27 -28 c-6 -2 -10 -8 -7 -13 6 -10 -22 -40 -36 -40 -5
0 -3 14 6 30 9 17 23 30 33 29 10 0 12 -3 4 -6z m62 -25 c-7 -22 -6 -22 20 -5
26 18 35 7 18 -21 -8 -11 -62 -14 -62 -2 1 19 14 50 22 50 5 0 6 -10 2 -22z
m-38 -16 c-8 -9 -19 -13 -22 -9 -10 9 16 38 28 31 6 -4 4 -13 -6 -22z m-136
-27 c0 -8 -38 -43 -43 -39 -11 11 15 53 29 47 8 -3 14 -6 14 -8z m18 -20 c-6
-14 -15 -25 -20 -25 -5 0 -6 -4 -3 -10 11 -18 33 -11 28 9 -3 13 2 20 17 24
17 4 20 2 15 -16 -5 -20 -5 -20 8 2 19 31 30 12 12 -22 -11 -22 -11 -25 1 -20
8 3 14 -1 14 -11 0 -9 -8 -16 -18 -16 -23 0 -57 -35 -71 -73 l-11 -28 -35 35
c-38 38 -43 57 -21 75 15 13 32 -1 21 -18 -3 -5 0 -13 6 -17 9 -5 10 3 5 30
-6 32 -3 42 21 71 33 40 47 45 31 10z m96 -30 c-4 -8 -10 -15 -15 -15 -5 0 -9
7 -9 15 0 8 7 15 15 15 9 0 12 -6 9 -15z m90 6 c3 -5 -1 -22 -9 -37 -8 -16
-15 -35 -15 -41 0 -17 -35 -17 -48 0 -14 16 -4 57 13 57 7 0 15 7 19 15 6 16
32 20 40 6z m-345 -71 c0 -9 -4 -8 -9 5 -5 11 -9 27 -9 35 0 9 4 8 9 -5 5 -11
9 -27 9 -35z m311 -90 c0 -5 -4 -10 -10 -10 -5 0 -10 5 -10 10 0 6 5 10 10 10
6 0 10 -4 10 -10z m-40 -14 c0 -9 -73 -76 -78 -71 -6 6 58 75 70 75 4 0 8 -2
8 -4z m-80 -106 c0 -5 -5 -10 -11 -10 -5 0 -7 5 -4 10 3 6 8 10 11 10 2 0 4
-4 4 -10z"/>
<path d="M2036 1045 c-3 -8 -1 -15 4 -15 6 0 10 7 10 15 0 8 -2 15 -4 15 -2 0
-6 -7 -10 -15z"/>
<path d="M1992 997 c-6 -12 -14 -42 -18 -67 -6 -39 -5 -43 9 -32 13 11 15 7
19 -34 2 -27 -2 -53 -9 -63 -11 -15 -12 -14 -13 2 0 28 -30 20 -30 -9 0 -14
-4 -23 -10 -19 -13 8 -13 -35 0 -55 6 -10 3 -20 -11 -33 -11 -11 -19 -30 -18
-50 0 -18 3 -26 6 -19 10 26 23 10 23 -29 0 -23 7 -47 15 -55 8 -9 15 -32 15
-53 0 -20 4 -41 9 -47 24 -24 33 -184 10 -184 -5 0 -9 -10 -9 -23 0 -19 9 -26
53 -40 46 -14 157 -31 157 -24 0 2 -9 20 -20 42 -11 22 -20 51 -20 65 0 14
-10 41 -22 60 -17 29 -22 59 -29 170 -11 175 -24 248 -50 284 -17 23 -20 38
-17 77 3 27 12 57 22 67 22 25 20 33 -18 64 l-33 27 -11 -22z"/>
<path d="M4840 1003 c0 -13 5 -23 10 -23 13 0 13 11 0 30 -8 12 -10 11 -10 -7z"/>
<path d="M4515 995 c-16 -8 -48 -14 -70 -13 -28 1 -55 -7 -88 -27 -27 -15 -76
-37 -110 -49 -51 -18 -61 -25 -59 -41 2 -11 8 -47 13 -79 5 -33 11 -61 13 -64
2 -2 13 1 25 7 11 6 22 7 25 2 3 -5 -4 -11 -17 -15 -22 -5 -22 -9 -20 -108 1
-74 9 -129 26 -193 14 -49 28 -89 31 -87 14 5 27 1 22 -7 -3 -4 -23 -11 -45
-15 -30 -4 -48 -16 -75 -48 -20 -23 -36 -45 -36 -49 0 -23 66 -101 108 -127
52 -33 156 -66 193 -60 22 3 24 8 27 68 3 66 -22 205 -41 228 -6 7 -24 12 -40
10 -18 -2 -32 2 -34 10 -3 7 5 12 21 12 31 0 48 28 40 68 -3 16 -1 46 5 67 9
32 8 40 -6 50 -9 7 -13 17 -9 23 10 16 36 15 37 0 0 -7 18 34 39 92 29 77 36
106 27 112 -8 6 -6 10 8 14 22 6 135 171 129 188 -13 34 -94 52 -139 31z m-25
-225 c0 -5 -4 -10 -10 -10 -5 0 -10 5 -10 10 0 6 5 10 10 10 6 0 10 -4 10 -10z
m-70 -10 c-14 -4 -41 -8 -60 -8 -32 0 -33 1 -10 8 14 4 41 8 60 8 32 0 33 -1
10 -8z m-110 -20 c0 -5 -4 -10 -10 -10 -5 0 -10 5 -10 10 0 6 5 10 10 10 6 0
10 -4 10 -10z m123 -100 c-3 -11 -9 -20 -14 -20 -10 0 -12 33 -3 43 12 12 22
-3 17 -23z m-89 -11 c-3 -5 -10 -7 -15 -3 -5 3 -7 10 -3 15 3 5 10 7 15 3 5
-3 7 -10 3 -15z m59 -100 c4 -15 -1 -22 -19 -30 -33 -12 -31 -12 -37 12 -4 14
1 23 16 29 32 13 34 12 40 -11z m-48 -172 c0 -29 -4 -37 -19 -37 -12 0 -16 5
-12 16 3 9 2 12 -5 9 -5 -4 -17 -4 -25 -1 -12 5 -9 11 13 31 36 31 48 27 48
-18z m8 -126 c3 -12 -1 -22 -10 -25 -27 -11 -43 -6 -43 13 0 17 10 24 41 30 4
0 9 -8 12 -18z m-143 -36 c0 -8 -7 -15 -15 -15 -8 0 -15 7 -15 15 0 8 7 15 15
15 8 0 15 -7 15 -15z m73 1 c7 -17 -22 -31 -36 -17 -5 5 -6 14 -3 20 10 16 33
14 39 -3z m167 -30 c0 -21 -21 -31 -31 -15 -14 22 -11 29 11 29 11 0 20 -6 20
-14z"/>
<path d="M2187 985 c-32 -7 -61 -15 -64 -18 -3 -3 13 -27 35 -54 48 -58 75
-110 68 -129 -3 -8 -2 -13 3 -9 10 6 35 -65 46 -130 13 -74 74 -157 143 -194
18 -10 21 -7 27 22 4 17 19 56 32 86 l25 53 -20 42 c-11 22 -24 59 -28 81 -3
22 -13 53 -21 69 -11 20 -13 44 -8 81 5 46 3 56 -17 79 -20 23 -32 27 -93 31
-38 2 -96 -2 -128 -10z"/>
<path d="M3605 990 c-11 -5 -17 -9 -13 -9 3 -1 13 -3 21 -6 8 -4 14 0 14 10 0
8 -1 15 -1 14 -1 0 -10 -4 -21 -9z"/>
<path d="M2916 974 c-10 -26 -7 -32 14 -27 11 3 20 11 20 18 0 19 -27 26 -34
9z"/>
<path d="M3505 970 c20 -23 29 -21 19 4 -3 9 -13 16 -22 16 -13 0 -12 -3 3
-20z"/>
<path d="M4801 978 c0 -9 -7 -19 -13 -21 -7 -3 2 -6 20 -6 17 -1 32 3 32 9 0
5 -6 7 -14 4 -8 -3 -16 2 -19 13 -4 15 -5 15 -6 1z"/>
<path d="M3426 953 c-12 -12 -6 -43 9 -43 8 0 15 9 15 19 0 21 -13 34 -24 24z"/>
<path d="M2073 928 c-5 -7 -15 -30 -21 -50 -12 -34 -11 -41 12 -80 28 -50 56
-214 56 -334 0 -60 5 -84 25 -124 14 -27 25 -63 25 -80 0 -22 10 -41 30 -62
41 -41 66 -33 149 45 62 57 66 64 71 114 5 48 3 55 -17 68 -30 20 -29 21 -62
-25 -16 -23 -41 -50 -56 -62 l-27 -21 -42 22 c-24 11 -48 21 -54 21 -15 0 -32
57 -32 107 0 74 41 124 89 108 21 -6 32 -58 24 -112 -6 -39 -36 -45 -54 -12
-7 14 -14 18 -21 11 -7 -7 -6 -17 1 -31 18 -33 61 -27 110 15 40 34 41 37 26
58 -32 45 -46 78 -60 148 -19 88 -63 187 -111 245 -38 46 -46 50 -61 31z"/>
<path d="M4758 905 c-10 -13 -18 -39 -18 -58 0 -30 3 -34 20 -30 16 4 18 9 9
25 -8 15 -8 27 1 43 18 33 8 47 -12 20z"/>
<path d="M5017 913 c-4 -3 -2 -14 4 -24 8 -16 6 -19 -16 -19 -22 0 -24 -3 -16
-19 6 -10 8 -21 5 -24 -9 -8 6 -48 16 -42 4 3 7 -1 6 -8 0 -6 3 -12 9 -12 5 0
10 8 10 18 1 11 6 22 11 25 13 10 16 52 4 52 -7 0 -7 6 0 20 8 15 6 21 -9 29
-10 6 -21 8 -24 4z m13 -97 c0 -3 -4 -8 -10 -11 -5 -3 -10 -1 -10 4 0 6 5 11
10 11 6 0 10 -2 10 -4z"/>
<path d="M3985 887 c-12 -10 -14 -16 -7 -21 17 -10 15 -26 -3 -26 -8 0 -15 -5
-15 -11 0 -5 -4 -8 -10 -4 -5 3 -16 -8 -25 -25 -21 -40 -79 -67 -102 -48 -13
10 -17 10 -20 1 -5 -15 -43 -18 -43 -4 0 5 8 11 18 14 13 3 10 6 -10 11 -16 5
-29 12 -29 17 -1 5 -2 14 -3 21 0 6 -12 12 -24 13 -13 1 -27 8 -32 15 -6 10
-9 10 -14 -1 -5 -11 -7 -11 -12 -1 -3 6 -12 12 -20 12 -11 0 -13 -7 -8 -27 4
-16 11 -31 17 -34 5 -4 3 -9 -4 -12 -10 -4 -10 -6 -1 -6 6 -1 12 -6 12 -12 0
-5 -4 -7 -10 -4 -5 3 -10 -3 -10 -14 0 -32 3 -36 28 -33 14 2 22 -3 22 -12 0
-7 7 -16 15 -20 8 -3 14 -9 14 -13 -1 -4 1 -16 5 -26 13 -29 -2 -61 -40 -85
-41 -27 -90 -22 -112 9 -18 26 -29 24 -36 -5 -6 -26 11 -76 26 -76 4 0 8 -6 8
-13 0 -7 9 -20 20 -30 11 -9 20 -24 20 -32 0 -10 10 -15 30 -15 23 0 31 5 36
25 4 18 15 28 35 32 16 3 29 9 29 14 0 15 38 10 44 -6 3 -8 11 -15 19 -15 19
0 91 -76 83 -88 -3 -6 -2 -13 4 -17 18 -11 11 -28 -10 -22 -10 3 -24 -1 -31
-9 -10 -12 -1 -14 54 -14 35 0 81 -7 101 -15 32 -14 36 -14 36 0 0 8 4 15 10
15 5 0 7 -6 4 -14 -4 -10 8 -22 35 -36 l42 -21 29 33 c17 18 30 36 30 41 0 4
16 15 35 23 43 17 43 27 9 144 -20 71 -23 96 -16 124 7 22 7 49 1 73 -5 21
-11 45 -13 53 -2 9 -7 42 -11 73 -6 43 -14 65 -35 87 -25 27 -34 30 -87 30
-34 0 -67 -6 -78 -13z m-287 -135 c2 -7 -1 -12 -8 -12 -6 0 -9 4 -6 9 4 5 1
12 -4 14 -6 3 -5 4 2 3 6 -1 14 -8 16 -14z m49 -12 c-3 -11 -1 -20 4 -20 5 0
9 -4 9 -10 0 -5 -7 -7 -15 -4 -17 7 -21 54 -4 54 6 0 9 -9 6 -20z m78 -48 c-4
-4 -10 -2 -12 5 -2 7 -11 9 -20 6 -12 -5 -14 -3 -8 8 23 39 29 42 38 14 5 -14
6 -29 2 -33z m63 13 c0 -17 -6 -23 -19 -22 -18 1 -27 36 -13 50 12 12 32 -5
32 -28z m202 15 c0 -5 -2 -10 -4 -10 -3 0 -8 5 -11 10 -3 6 -1 10 4 10 6 0 11
-4 11 -10z m-140 -32 c0 -23 -3 -29 -9 -19 -5 7 -14 10 -20 7 -14 -9 -14 0 -1
25 16 29 30 23 30 -13z m57 9 c13 5 13 2 -2 -20 -22 -35 -25 -34 -24 6 0 17 3
27 5 20 3 -7 12 -9 21 -6z m183 -7 c0 -5 -4 -10 -10 -10 -5 0 -10 5 -10 10 0
6 5 10 10 10 6 0 10 -4 10 -10z m-40 -30 c0 -5 -4 -10 -10 -10 -5 0 -10 5 -10
10 0 6 5 10 10 10 6 0 10 -4 10 -10z m-56 -74 c-29 -53 -45 -56 -18 -4 19 39
35 60 41 55 2 -2 -9 -25 -23 -51z m-146 -13 c26 -6 26 -3 6 -41 -18 -38 -27
-40 -43 -9 -6 12 -9 14 -7 5 6 -20 -2 -22 -23 -9 -9 6 -10 11 -2 15 6 4 11 19
11 33 0 20 3 24 18 18 9 -4 27 -10 40 -12z m109 -75 c-3 -8 -6 -5 -6 6 -1 11
2 17 5 13 3 -3 4 -12 1 -19z m115 -14 l27 -14 -25 -25 c-26 -26 -44 -32 -44
-15 0 5 -7 7 -15 4 -12 -5 -15 3 -15 36 0 38 2 41 23 34 12 -3 34 -13 49 -20z
m-298 -19 c-4 -8 -8 -15 -10 -15 -2 0 -4 7 -4 15 0 8 4 15 10 15 5 0 7 -7 4
-15z m46 -15 c0 -11 -4 -20 -9 -20 -14 0 -23 18 -16 30 10 17 25 11 25 -10z
m132 -36 c-3 -37 -7 -53 -14 -46 -10 10 -1 102 11 102 3 0 4 -25 3 -56z m-2
-89 c0 -8 -2 -15 -4 -15 -2 0 -6 7 -10 15 -3 8 -1 15 4 15 6 0 10 -7 10 -15z"/>
<path d="M4810 855 c0 -11 5 -27 10 -35 7 -12 12 -12 22 -2 10 10 8 17 -10 34
-21 22 -22 22 -22 3z"/>
<path d="M3860 830 c-8 -5 -12 -12 -9 -15 4 -3 12 1 19 10 14 17 11 19 -10 5z"/>
<path d="M3879 798 c-20 -21 -32 -38 -28 -38 15 0 72 56 68 66 -2 6 -20 -7
-40 -28z"/>
<path d="M4873 829 c3 -9 1 -21 -4 -26 -7 -7 -5 -12 5 -16 22 -9 30 24 10 42
-15 15 -16 15 -11 0z"/>
<path d="M4820 760 c-7 -13 -6 -19 5 -24 11 -4 13 -16 9 -53 -6 -44 -5 -46 9
-29 14 19 15 19 27 -1 13 -20 14 -20 37 7 30 36 29 40 -8 40 -29 0 -31 2 -26
28 4 22 1 29 -19 39 -20 9 -26 8 -34 -7z"/>
<path d="M5056 752 c-6 -10 -2 -39 7 -48 3 -4 14 -4 23 0 15 6 16 8 0 25 -9 9
-13 21 -9 24 3 4 1 7 -5 7 -6 0 -13 -4 -16 -8z"/>
<path d="M4760 721 c0 -11 5 -23 11 -27 6 -3 8 -17 5 -30 -7 -27 5 -32 23 -10
9 11 8 17 -4 29 -18 19 -20 31 -2 21 6 -4 3 2 -7 14 -23 27 -26 27 -26 3z"/>
<path d="M3210 690 c0 -11 7 -20 15 -20 8 0 15 9 15 20 0 11 -7 20 -15 20 -8
0 -15 -9 -15 -20z"/>
<path d="M3430 664 c0 -14 4 -23 10 -19 6 3 10 15 10 26 0 10 -4 19 -10 19 -5
0 -10 -12 -10 -26z"/>
<path d="M5030 681 c0 -6 5 -13 10 -16 6 -3 10 1 10 9 0 9 -4 16 -10 16 -5 0
-10 -4 -10 -9z"/>
<path d="M3505 670 c-3 -6 2 -13 12 -17 10 -3 31 -17 46 -30 22 -18 33 -21 48
-13 23 13 24 23 5 39 -11 10 -16 8 -24 -6 -10 -17 -12 -17 -34 3 -33 30 -46
36 -53 24z"/>
<path d="M4937 629 c-14 -8 -16 -14 -6 -25 6 -8 18 -14 25 -14 8 0 14 -5 14
-12 0 -6 3 -9 6 -6 3 3 -1 16 -8 27 -11 18 -11 23 2 31 13 9 13 10 0 10 -8 -1
-23 -5 -33 -11z"/>
<path d="M5041 614 c0 -11 3 -14 6 -6 3 7 2 16 -1 19 -3 4 -6 -2 -5 -13z"/>
<path d="M4836 611 c-3 -5 1 -14 9 -21 13 -10 15 -9 15 9 0 21 -14 28 -24 12z"/>
<path d="M4504 602 c-19 -13 -58 -126 -57 -165 1 -69 13 -73 154 -42 175 37
160 30 153 78 -4 23 -13 54 -20 68 -15 31 -78 59 -126 57 -18 0 -46 2 -63 6
-16 3 -35 3 -41 -2z m66 -36 c0 -21 -21 -31 -31 -15 -14 22 -11 29 11 29 11 0
20 -6 20 -14z m-30 -102 c0 -8 -4 -14 -9 -14 -11 0 -22 26 -14 34 9 9 23 -3
23 -20z"/>
<path d="M2493 552 c-25 -56 -45 -114 -39 -119 2 -2 26 -12 52 -23 l49 -18 0
86 c0 62 -4 92 -15 105 -8 9 -17 17 -20 17 -3 -1 -15 -22 -27 -48z"/>
<path d="M4780 583 c0 -4 5 -15 10 -23 8 -13 10 -13 10 2 0 9 -4 20 -10 23 -5
3 -10 3 -10 -2z"/>
<path d="M4888 555 c5 -28 22 -44 22 -21 0 21 -11 46 -20 46 -4 0 -5 -11 -2
-25z"/>
<path d="M4844 545 c-16 -12 -17 -14 -3 -15 9 0 19 7 23 15 7 19 5 19 -20 0z"/>
<path d="M2570 483 c0 -69 8 -103 24 -103 6 0 40 -14 75 -30 50 -24 66 -28 73
-18 4 7 8 9 8 5 0 -5 14 3 31 17 17 14 37 26 44 26 13 0 52 97 42 106 -3 3
-33 -5 -68 -17 -83 -29 -122 -22 -183 32 l-46 41 0 -59z"/>
<path d="M4876 503 c-13 -3 -15 -7 -7 -12 9 -6 9 -15 1 -36 -8 -22 -7 -33 6
-52 11 -18 19 -22 26 -15 8 8 6 19 -6 37 -14 21 -15 33 -7 56 5 16 9 28 8 28
-1 -1 -11 -4 -21 -6z"/>
<path d="M242 400 c5 -134 69 -254 160 -301 24 -12 45 -34 58 -59 18 -35 25
-40 55 -40 34 0 47 13 23 23 -8 3 -6 6 5 6 9 1 17 -6 17 -14 0 -12 17 -15 95
-15 69 0 95 3 95 13 0 9 2 9 9 -1 5 -8 22 -12 44 -10 l36 3 -38 63 c-45 73
-52 82 -47 55 3 -11 0 -26 -5 -34 -6 -9 -9 1 -9 31 0 31 -12 72 -41 135 l-41
90 -112 0 c-99 0 -117 3 -168 27 -32 15 -76 46 -98 70 l-41 43 3 -85z m224
-328 c17 -27 17 -27 -15 2 -35 33 -37 38 -17 30 8 -3 22 -18 32 -32z m294 -22
c0 -5 -4 -10 -10 -10 -5 0 -10 5 -10 10 0 6 5 10 10 10 6 0 10 -4 10 -10z
m-110 -25 c0 -9 -9 -15 -25 -15 -16 0 -25 6 -25 15 0 9 9 15 25 15 16 0 25 -6
25 -15z"/>
<path d="M3437 473 c-2 -4 -7 -26 -11 -48 l-7 -40 25 30 c14 17 25 33 26 36 0
11 -28 30 -33 22z"/>
<path d="M4941 464 c0 -11 3 -14 6 -6 3 7 2 16 -1 19 -3 4 -6 -2 -5 -13z"/>
<path d="M4810 466 c0 -2 7 -41 15 -85 20 -106 53 -211 66 -211 14 0 7 71 -8
77 -7 3 -13 14 -13 25 0 18 2 19 16 7 13 -10 17 -10 24 0 10 18 1 51 -15 51
-17 0 -68 79 -61 96 7 17 -3 44 -15 44 -5 0 -9 -2 -9 -4z"/>
<path d="M3521 443 c7 -12 15 -20 18 -17 3 2 -3 12 -13 22 -17 16 -18 16 -5
-5z"/>
<path d="M1556 441 c-3 -5 -1 -11 6 -13 7 -3 8 -9 3 -18 -6 -10 -11 -10 -21 5
-11 15 -19 16 -61 6 -26 -6 -78 -13 -115 -17 -39 -3 -72 -11 -79 -20 -6 -8
-11 -35 -11 -61 1 -51 15 -74 33 -56 13 13 42 6 33 -8 -3 -5 -1 -9 4 -9 16 0
37 32 34 52 -3 19 22 26 33 8 4 -6 10 -8 15 -5 4 3 7 -3 6 -13 -1 -12 8 -18
27 -20 28 -3 39 -32 12 -32 -28 0 -17 -48 20 -84 32 -33 35 -40 35 -96 l0 -60
74 0 c66 0 74 2 79 21 3 12 10 18 17 14 6 -4 9 -14 6 -22 -4 -9 -1 -13 6 -11
22 7 22 84 1 100 -10 7 -33 42 -52 76 -28 53 -33 71 -28 108 3 30 0 47 -9 55
-8 6 -11 16 -7 22 4 6 11 3 19 -8 12 -16 14 -14 22 16 14 49 -4 73 -56 77 -22
2 -43 -1 -46 -7z m49 -51 c3 -5 -1 -10 -9 -10 -9 0 -16 5 -16 10 0 6 4 10 9
10 6 0 13 -4 16 -10z m105 -319 c0 -6 -4 -13 -10 -16 -5 -3 -10 1 -10 9 0 9 5
16 10 16 6 0 10 -4 10 -9z"/>
<path d="M4781 424 c0 -11 3 -14 6 -6 3 7 2 16 -1 19 -3 4 -6 -2 -5 -13z"/>
<path d="M1036 374 c-10 -78 -7 -94 22 -119 36 -32 45 -31 78 8 23 27 24 33
10 35 -9 2 -15 9 -14 15 3 12 -47 84 -67 99 -18 14 -22 8 -29 -38z"/>
<path d="M2440 371 c0 -16 -2 -36 -5 -44 -5 -11 4 -12 49 -6 70 9 100 19 90
29 -7 7 -121 50 -131 50 -2 0 -3 -13 -3 -29z"/>
<path d="M4708 342 c-3 -56 -2 -58 20 -54 18 4 21 7 10 14 -10 7 -8 12 10 25
14 10 22 26 22 44 0 25 -4 29 -29 29 -29 0 -29 -1 -33 -58z"/>
<path d="M985 368 c-16 -5 -55 -12 -85 -16 l-54 -7 53 -38 c66 -48 72 -50 95
-32 12 9 20 29 22 60 1 25 2 45 1 44 -1 0 -15 -5 -32 -11z"/>
<path d="M4556 362 c-82 -20 -94 -35 -78 -89 l12 -39 86 20 86 20 -7 46 c-7
48 -12 60 -23 59 -4 0 -38 -8 -76 -17z"/>
<path d="M4791 364 c0 -11 3 -14 6 -6 3 7 2 16 -1 19 -3 4 -6 -2 -5 -13z"/>
<path d="M695 360 c-8 -13 45 -131 56 -124 5 3 9 -5 9 -17 0 -28 80 -170 92
-163 4 3 8 -4 8 -14 0 -32 22 -43 45 -23 52 45 54 91 4 116 -37 20 -72 75 -89
143 -8 28 -17 52 -21 52 -7 0 -24 -49 -21 -62 1 -5 -3 -8 -9 -8 -10 0 -8 20 7
71 7 24 -68 51 -81 29z"/>
<path d="M2797 345 c-20 -14 -37 -29 -37 -33 1 -4 26 -25 57 -47 59 -42 117
-106 175 -192 37 -53 48 -57 48 -16 0 32 26 93 51 120 28 29 19 53 -38 102
-45 40 -115 72 -183 85 -28 5 -43 1 -73 -19z"/>
<path d="M3620 339 c0 -5 5 -7 10 -4 6 3 10 8 10 11 0 2 -4 4 -10 4 -5 0 -10
-5 -10 -11z"/>
<path d="M841 290 c12 -54 46 -119 65 -127 21 -8 42 15 50 53 6 32 10 28 -98
98 l-26 17 9 -41z"/>
<path d="M4766 315 c-3 -8 -1 -15 4 -15 6 0 10 7 10 15 0 8 -2 15 -4 15 -2 0
-6 -7 -10 -15z"/>
<path d="M2535 310 c-11 -5 -33 -9 -50 -9 -34 -1 -126 -60 -150 -98 -9 -13
-32 -31 -50 -39 -46 -19 -195 -19 -242 1 -49 21 -54 19 -46 -12 4 -16 7 -44 7
-63 1 -30 6 -37 39 -53 20 -10 37 -23 37 -28 0 -5 63 -9 144 -9 l143 0 52 41
c57 45 74 70 65 93 -9 22 42 79 74 83 15 2 57 6 94 9 64 5 70 4 115 -27 27
-18 54 -32 61 -32 6 0 12 -6 12 -13 0 -7 3 -14 8 -16 4 -1 18 -25 32 -53 14
-27 32 -49 39 -47 8 2 10 -4 6 -18 -6 -18 -2 -20 34 -20 23 0 41 3 41 6 0 16
-93 135 -148 189 -65 65 -119 96 -195 114 -55 13 -94 13 -122 1z m-145 -135
c-7 -8 -18 -15 -24 -15 -6 0 -2 7 8 15 25 19 32 19 16 0z"/>
<path d="M1660 306 c0 -2 7 -7 16 -10 8 -3 12 -2 9 4 -6 10 -25 14 -25 6z"/>
<path d="M3303 292 c-18 -9 -33 -19 -33 -22 0 -11 77 -33 89 -25 7 4 19 1 27
-6 32 -26 21 -1 -14 33 -37 36 -37 36 -69 20z"/>
<path d="M1690 273 c-33 -12 -39 -24 -28 -48 6 -14 16 -21 24 -18 8 3 14 -1
15 -8 1 -30 8 -46 32 -83 15 -20 29 -46 32 -56 4 -12 12 -17 21 -13 10 3 12 0
8 -10 -8 -22 29 -39 79 -35 50 4 59 28 26 67 -19 24 -21 24 -54 8 -43 -21 -47
-4 -4 18 29 15 30 17 15 39 -8 13 -12 33 -9 45 3 12 1 21 -6 21 -6 0 -11 6
-11 13 0 7 -25 25 -55 40 -58 28 -61 29 -85 20z m0 -29 c0 -8 -5 -12 -10 -9
-6 4 -8 11 -5 16 9 14 15 11 15 -7z"/>
<path d="M3795 263 c-6 -17 5 -46 22 -56 7 -5 11 -12 8 -18 -4 -5 -1 -9 4 -9
6 0 11 6 11 14 0 23 25 25 51 5 29 -23 49 -24 49 -4 0 19 11 19 35 1 19 -14
55 -10 66 7 4 5 12 6 19 2 8 -5 9 -10 1 -18 -6 -6 -11 -17 -11 -24 0 -6 -10
-23 -22 -37 -49 -52 -49 -50 -2 -82 24 -16 44 -32 44 -36 0 -5 73 -8 163 -7
l162 0 -59 19 c-74 24 -148 74 -171 116 -31 59 -135 114 -148 80 -4 -9 -11
-16 -17 -16 -7 0 -8 6 0 19 5 11 10 22 10 24 0 10 -49 20 -127 26 -62 4 -84 3
-88 -6z m285 -184 c0 -10 -4 -19 -10 -19 -5 0 -10 12 -10 26 0 14 4 23 10 19
6 -3 10 -15 10 -26z"/>
<path d="M4725 265 c-27 -7 -45 -13 -39 -14 18 -2 25 -30 12 -50 -11 -18 -12
-18 -31 0 -12 11 -17 24 -13 35 5 13 2 15 -17 11 -12 -4 -47 -12 -77 -19 -36
-8 -47 -13 -32 -16 30 -5 28 -16 -5 -29 l-28 -12 28 6 c20 4 27 1 27 -11 0
-10 -9 -16 -25 -16 -14 0 -25 -4 -25 -8 0 -5 14 -7 30 -4 17 2 30 10 30 19 0
8 5 11 10 8 20 -12 9 -33 -21 -44 -17 -6 -35 -8 -40 -5 -5 3 -9 -9 -9 -25 0
-29 3 -31 36 -31 28 0 35 -3 30 -15 -8 -23 9 -18 28 7 12 16 16 18 12 5 -6
-20 -7 -20 50 -6 48 12 48 12 34 39 -7 13 -6 19 4 23 18 7 26 -1 26 -26 0 -17
5 -18 37 -12 51 9 73 23 72 43 -1 16 -2 16 -6 -1 -3 -11 -14 -17 -34 -17 -38
0 -37 19 1 33 17 6 29 16 26 22 -2 5 -9 36 -16 68 -7 31 -16 57 -19 56 -3 0
-28 -7 -56 -14z"/>
<path d="M4924 267 c-3 -8 0 -25 5 -40 7 -17 7 -28 1 -32 -6 -4 -10 -15 -10
-27 0 -17 4 -19 26 -14 19 5 30 2 41 -11 25 -31 8 63 -19 103 -25 36 -36 42
-44 21z"/>
<path d="M1009 262 c-1 -4 -1 -10 0 -14 0 -4 -6 -5 -13 -2 -21 8 -44 -98 -28
-129 6 -12 13 -31 17 -42 9 -32 80 -75 124 -75 31 0 40 5 49 25 19 40 15 122
-5 141 -38 32 -143 104 -144 96z m99 -140 c2 -15 -2 -22 -12 -22 -11 0 -16 9
-16 26 0 31 23 28 28 -4z"/>
<path d="M1410 250 c0 -6 -6 -10 -13 -8 -24 6 -15 -17 14 -35 24 -16 29 -17
29 -4 0 9 -6 18 -12 21 -10 5 -10 7 0 12 6 3 10 10 6 15 -7 12 -24 11 -24 -1z"/>
<path d="M4826 220 c11 -62 65 -220 74 -220 13 0 12 17 -2 43 -6 12 -27 65
-45 117 -18 52 -31 79 -27 60z"/>
<path d="M1308 194 c5 -47 4 -47 -73 -70 -25 -8 -32 -17 -42 -56 -6 -26 -14
-52 -18 -58 -4 -7 48 -10 165 -10 l171 0 -6 47 c-11 83 -13 87 -62 113 -26 14
-58 34 -71 45 -13 11 -34 23 -46 26 -22 6 -23 4 -18 -37z m2 -94 c0 -5 -2 -10
-4 -10 -3 0 -8 5 -11 10 -3 6 -1 10 4 10 6 0 11 -4 11 -10z m-58 -51 c15 -8
17 -13 8 -19 -17 -11 -50 0 -50 16 0 17 14 18 42 3z"/>
<path d="M1197 224 c-4 -4 -17 -8 -29 -9 -42 -4 -43 -6 -15 -21 16 -9 27 -23
27 -35 0 -17 4 -20 23 -15 12 3 31 6 42 6 36 1 48 15 40 49 -6 28 -10 31 -44
31 -21 0 -41 -3 -44 -6z"/>
<path d="M3149 195 c-49 -35 -82 -92 -92 -157 -4 -29 -2 -38 9 -38 9 0 14 11
14 35 0 22 6 38 15 41 8 4 15 13 15 20 0 8 11 20 25 26 14 6 25 18 25 26 0 8
6 12 15 8 25 -9 44 4 41 30 -5 43 -19 45 -67 9z"/>
<path d="M3708 206 c-24 -18 -23 -23 5 -28 20 -4 23 -1 19 19 -2 13 -5 23 -6
23 0 0 -9 -7 -18 -14z"/>
<path d="M3510 151 c0 -6 4 -13 10 -16 6 -3 7 1 4 9 -7 18 -14 21 -14 7z"/>
<path d="M4904 106 c9 -21 16 -41 16 -44 0 -3 5 -1 11 5 12 12 1 41 -26 63
-16 13 -16 11 -1 -24z"/>
<path d="M3480 95 c-13 -25 -30 -34 -30 -16 0 12 -40 8 -60 -4 -21 -13 -41
-12 -70 1 -38 18 -59 2 -51 -38 l7 -33 163 -3 c156 -2 163 -2 150 15 -48 61
-84 103 -89 103 -4 0 -13 -11 -20 -25z"/>
<path d="M5020 95 c0 -8 7 -15 16 -15 14 0 14 3 4 15 -7 8 -14 15 -16 15 -2 0
-4 -7 -4 -15z"/>
<path d="M3560 94 c0 -3 16 -26 36 -50 l36 -44 89 0 88 0 7 36 c6 35 8 36 40
31 35 -6 47 6 18 17 -29 11 -53 6 -68 -15 -14 -20 -22 -21 -101 -17 -48 2 -90
9 -93 14 -9 12 -52 36 -52 28z"/>
<path d="M3924 88 c11 -36 -3 -48 -49 -42 -40 6 -43 5 -47 -20 -5 -24 -3 -26
32 -26 29 0 41 6 59 31 19 26 21 35 12 53 -7 12 -10 14 -7 4z"/>
<path d="M390 34 c-14 -35 -14 -34 25 -34 39 0 42 6 19 38 -20 29 -32 28 -44
-4z"/>
<path d="M4660 31 l-115 -26 59 -3 c40 -2 62 1 67 9 6 11 12 11 31 1 14 -8 52
-11 94 -10 58 2 70 6 66 18 -17 48 -36 49 -202 11z"/>
<path d="M5045 51 c-3 -5 -1 -12 5 -16 5 -3 10 1 10 9 0 18 -6 21 -15 7z"/>
<path d="M955 41 c-3 -5 -2 -16 1 -25 7 -19 44 -22 44 -3 0 16 -37 39 -45 28z"/>
<path d="M2605 35 c-35 -12 -36 -14 -13 -14 15 -1 30 -5 33 -11 6 -10 95 -14
95 -4 0 3 -5 14 -10 25 -12 22 -45 23 -105 4z"/>
<path d="M4930 41 c0 -18 12 -41 22 -41 13 0 38 26 38 39 0 6 -13 11 -30 11
-16 0 -30 -4 -30 -9z"/>
<path d="M3966 24 c-3 -9 -6 -17 -6 -18 0 -1 16 -2 36 -2 l36 0 -22 18 c-27
22 -36 23 -44 2z"/>
<path d="M1750 12 c0 -5 7 -9 15 -9 8 0 12 4 9 9 -3 4 -9 8 -15 8 -5 0 -9 -4
-9 -8z"/>
</g>
</svg>
